<svg
    className="checkout-title-icon"
    width="16"
    height="16"
    viewBox="0 0 16 16"
    fill="none"
    xmlns="http://www.w3.org/2000/svg"
>
    <g clip-path="url(#clip0)">
        <path
            d="M15.2725 8.06711V5.81833C15.2725 5.0558 14.681 4.43566 13.9338 4.37553L11.8454 0.727861C11.6518 0.390503 11.3393 0.149382 10.9654 0.0492583C10.5932 -0.0501832 10.2041 0.00204321 9.87097 0.195915L2.71189 4.3638H1.45453C0.652353 4.3638 0 5.01612 0 5.81833V14.5455C0 15.3476 0.652319 16 1.45453 16H13.818C14.6202 16 15.2725 15.3477 15.2725 14.5455V12.2967C15.6949 12.1461 15.9998 11.7462 15.9998 11.2728V9.09101C15.9998 8.61756 15.6949 8.21772 15.2725 8.06711ZM13.0887 4.3638H9.91927L12.2964 2.97987L13.0887 4.3638ZM11.935 2.34875L8.47387 4.3638H7.03823L11.5761 1.7218L11.935 2.34875ZM10.2371 0.824439C10.4015 0.728202 10.5936 0.702634 10.7772 0.751656C10.9629 0.80136 11.1178 0.921392 11.214 1.08935L11.2147 1.09068L5.5929 4.3638H4.15732L10.2371 0.824439ZM14.5452 14.5455C14.5452 14.9464 14.2189 15.2727 13.818 15.2727H1.45453C1.05363 15.2727 0.727284 14.9464 0.727284 14.5455V5.81833C0.727284 5.41743 1.05363 5.09108 1.45453 5.09108H13.818C14.2189 5.09108 14.5452 5.41743 14.5452 5.81833V8.00012H12.3634C11.1603 8.00012 10.1817 8.97878 10.1817 10.1819C10.1817 11.385 11.1603 12.3637 12.3634 12.3637H14.5452V14.5455ZM15.2725 11.2728C15.2725 11.4734 15.1095 11.6364 14.9089 11.6364H12.3634C11.5613 11.6364 10.9089 10.9841 10.9089 10.1819C10.9089 9.37972 11.5612 8.72737 12.3634 8.72737H14.9089C15.1095 8.72737 15.2725 8.89035 15.2725 9.09101V11.2728Z"
            fill="black"
        />
        <path
            d="M12.363 9.45459C11.9621 9.45459 11.6357 9.78094 11.6357 10.1818C11.6357 10.5827 11.9621 10.9091 12.363 10.9091C12.7639 10.9091 13.0902 10.5827 13.0902 10.1818C13.0903 9.78094 12.7639 9.45459 12.363 9.45459Z"
            fill="black"
        />
    </g>
    <defs>
        <clipPath id="clip0">
            <rect width="16" height="16" fill="white" />
        </clipPath>
    </defs>
</svg>