<svg className="cart-title-icon" width="16" height="16" viewBox="0 0 16 16" fill="none" xmlns="http://www.w3.org/2000/svg">
    <path d="M4.45687 12.2707C3.39135 12.2707 2.50342 11.4715 2.41463 10.3172L1.70428 1.4379L0.549969 1.26032C0.194796 1.17152 -0.0715838 0.816349 0.0172095 0.549969C0.106003 0.194796 0.372383 -0.0715838 0.727556 0.0172095L2.41463 0.283589C2.68101 0.372383 2.85859 0.638763 2.85859 0.905142L3.03618 3.21377C14.4017 3.21377 14.4905 3.21377 14.5793 3.21377C15.0233 3.30256 15.3784 3.48015 15.6448 3.92411C15.9112 4.27929 16 4.72325 16 5.16722L15.2009 10.4948C15.0233 11.4715 14.2241 12.2707 13.1586 12.2707H4.45687ZM3.12497 4.36808L3.56894 10.2284C3.56894 10.6724 4.01291 11.0276 4.36808 11.0276H13.0698C13.5138 11.0276 13.869 10.6724 13.869 10.3172L14.6681 4.98963C14.6681 4.90084 14.6681 4.72325 14.5793 4.63446C14.6681 4.45687 14.4905 4.45687 14.4017 4.36808C14.2241 4.36808 7.29826 4.36808 3.12497 4.36808Z" fill="#191919" />
    <path d="M11.9156 7.38673H9.69577C9.3406 7.38673 9.07422 7.12035 9.07422 6.76518C9.07422 6.41001 9.3406 6.23242 9.69577 6.23242H11.9156C12.2708 6.23242 12.5372 6.4988 12.5372 6.85397C12.5372 7.20915 12.2708 7.38673 11.9156 7.38673Z" fill="#191919" />
    <path d="M4.19045 16C3.56889 16 3.03613 15.4673 3.03613 14.8457C3.03613 14.2242 3.56889 13.6914 4.19045 13.6914C4.812 13.6914 5.34476 14.2242 5.34476 14.8457C5.34476 15.4673 4.812 16 4.19045 16Z" fill="#191919" />
    <path d="M13.0703 16C12.4488 16 11.916 15.4673 11.916 14.8457C11.916 14.2242 12.4488 13.6914 13.0703 13.6914C13.6919 13.6914 14.2246 14.2242 14.2246 14.8457C14.2246 15.4673 13.6919 16 13.0703 16Z" fill="#191919" />
</svg>