<svg
                      width="20"
                      height="20"
                      viewBox="0 0 20 20"
                      fill="none"
                      xmlns="http://www.w3.org/2000/svg"
                    >
                      <path
                        d="M19.1887 15.6756H0.810309C0.738629 15.6756 0.669885 15.6471 0.619199 15.5964C0.568514 15.5457 0.540039 15.477 0.540039 15.4053V12.6485C0.540026 12.5862 0.561541 12.5258 0.600941 12.4776C0.640342 12.4293 0.695209 12.3961 0.756255 12.3837C1.30613 12.272 1.80049 11.9737 2.15557 11.5393C2.51066 11.1048 2.70464 10.561 2.70464 9.99989C2.70464 9.4388 2.51066 8.89496 2.15557 8.46053C1.80049 8.02609 1.30613 7.72777 0.756255 7.61611C0.695209 7.60365 0.640342 7.57048 0.600941 7.52221C0.561541 7.47395 0.540026 7.41355 0.540039 7.35125V4.59449C0.540039 4.52281 0.568514 4.45406 0.619199 4.40338C0.669885 4.35269 0.738629 4.32422 0.810309 4.32422H19.1887C19.2604 4.32422 19.3291 4.35269 19.3798 4.40338C19.4305 4.45406 19.459 4.52281 19.459 4.59449V7.35125C19.459 7.41355 19.4375 7.47395 19.3981 7.52221C19.3587 7.57048 19.3038 7.60365 19.2427 7.61611C18.6929 7.72777 18.1985 8.02609 17.8434 8.46053C17.4883 8.89496 17.2944 9.4388 17.2944 9.99989C17.2944 10.561 17.4883 11.1048 17.8434 11.5393C18.1985 11.9737 18.6929 12.272 19.2427 12.3837C19.3038 12.3961 19.3587 12.4293 19.3981 12.4776C19.4375 12.5258 19.459 12.5862 19.459 12.6485V15.4053C19.459 15.477 19.4305 15.5457 19.3798 15.5964C19.3291 15.6471 19.2604 15.6756 19.1887 15.6756ZM1.08058 15.135H18.9184V12.8607C18.2954 12.6845 17.7469 12.3098 17.3563 11.7935C16.9657 11.2771 16.7544 10.6473 16.7544 9.99989C16.7544 9.35244 16.9657 8.72269 17.3563 8.20633C17.7469 7.68998 18.2954 7.31525 18.9184 7.13908V4.86476H1.08058V7.13908C1.7036 7.31525 2.25209 7.68998 2.64269 8.20633C3.03329 8.72269 3.24465 9.35244 3.24465 9.99989C3.24465 10.6473 3.03329 11.2771 2.64269 11.7935C2.25209 12.3098 1.7036 12.6845 1.08058 12.8607V15.135Z"
                        fill="black"
                      />
                      <path
                        d="M14.0545 5.84746C13.9828 5.84746 13.914 5.81899 13.8633 5.7683C13.8127 5.71762 13.7842 5.64887 13.7842 5.57719V4.59449C13.7842 4.52281 13.8127 4.45406 13.8633 4.40338C13.914 4.35269 13.9828 4.32422 14.0545 4.32422C14.1261 4.32422 14.1949 4.35269 14.2456 4.40338C14.2962 4.45406 14.3247 4.52281 14.3247 4.59449V5.57719C14.3247 5.64887 14.2962 5.71762 14.2456 5.7683C14.1949 5.81899 14.1261 5.84746 14.0545 5.84746Z"
                        fill="black"
                      />
                      <path
                        d="M14.0545 8.30449C13.9828 8.30449 13.914 8.27602 13.8633 8.22533C13.8127 8.17465 13.7842 8.1059 13.7842 8.03422V7.05152C13.7842 6.97984 13.8127 6.9111 13.8633 6.86041C13.914 6.80973 13.9828 6.78125 14.0545 6.78125C14.1261 6.78125 14.1949 6.80973 14.2456 6.86041C14.2962 6.9111 14.3247 6.97984 14.3247 7.05152V8.03422C14.3247 8.1059 14.2962 8.17465 14.2456 8.22533C14.1949 8.27602 14.1261 8.30449 14.0545 8.30449Z"
                        fill="black"
                      />
                      <path
                        d="M14.0545 10.7615C13.9828 10.7615 13.914 10.7331 13.8633 10.6824C13.8127 10.6317 13.7842 10.5629 13.7842 10.4913V9.50855C13.7842 9.43687 13.8127 9.36813 13.8633 9.31744C13.914 9.26676 13.9828 9.23828 14.0545 9.23828C14.1261 9.23828 14.1949 9.26676 14.2456 9.31744C14.2962 9.36813 14.3247 9.43687 14.3247 9.50855V10.4915C14.3247 10.5632 14.2961 10.6318 14.2455 10.6825C14.1948 10.7331 14.1261 10.7615 14.0545 10.7615Z"
                        fill="black"
                      />
                      <path
                        d="M14.0545 13.2186C13.9828 13.2186 13.914 13.1901 13.8633 13.1394C13.8127 13.0887 13.7842 13.02 13.7842 12.9483V11.9656C13.7842 11.8939 13.8127 11.8252 13.8633 11.7745C13.914 11.7238 13.9828 11.6953 14.0545 11.6953C14.1261 11.6953 14.1949 11.7238 14.2456 11.7745C14.2962 11.8252 14.3247 11.8939 14.3247 11.9656V12.9483C14.3247 13.02 14.2962 13.0887 14.2456 13.1394C14.1949 13.1901 14.1261 13.2186 14.0545 13.2186Z"
                        fill="black"
                      />
                      <path
                        d="M14.0545 15.6756C13.9828 15.6756 13.914 15.6471 13.8633 15.5964C13.8127 15.5457 13.7842 15.477 13.7842 15.4053V14.4226C13.7842 14.3509 13.8127 14.2822 13.8633 14.2315C13.914 14.1808 13.9828 14.1523 14.0545 14.1523C14.1261 14.1523 14.1949 14.1808 14.2456 14.2315C14.2962 14.2822 14.3247 14.3509 14.3247 14.4226V15.4053C14.3247 15.477 14.2962 15.5457 14.2456 15.5964C14.1949 15.6471 14.1261 15.6756 14.0545 15.6756Z"
                        fill="black"
                      />
                      <path
                        d="M5.65596 12.8492C5.60251 12.8492 5.55027 12.8333 5.50583 12.8036C5.4614 12.7739 5.42676 12.7317 5.40631 12.6823C5.38586 12.6329 5.38051 12.5786 5.39093 12.5262C5.40136 12.4738 5.42709 12.4256 5.46487 12.3878L10.4735 7.37646C10.4984 7.35064 10.5283 7.33005 10.5612 7.31589C10.5942 7.30172 10.6297 7.29427 10.6656 7.29396C10.7015 7.29364 10.737 7.30048 10.7703 7.31407C10.8035 7.32766 10.8337 7.34773 10.859 7.37311C10.8844 7.39848 10.9045 7.42866 10.9181 7.46187C10.9317 7.49509 10.9385 7.53068 10.9382 7.56656C10.9379 7.60245 10.9304 7.63792 10.9162 7.67089C10.9021 7.70386 10.8815 7.73369 10.8557 7.75862L5.84704 12.7702C5.79632 12.8208 5.72759 12.8492 5.65596 12.8492Z"
                        fill="black"
                      />
                      <path
                        d="M9.83334 12.9782C9.58643 12.9782 9.34507 12.905 9.13978 12.7678C8.93448 12.6306 8.77448 12.4357 8.67999 12.2076C8.5855 11.9794 8.56078 11.7284 8.60895 11.4863C8.65712 11.2441 8.77601 11.0217 8.9506 10.8471C9.12519 10.6725 9.34763 10.5536 9.58979 10.5054C9.83195 10.4573 10.083 10.482 10.3111 10.5765C10.5392 10.671 10.7342 10.831 10.8713 11.0363C11.0085 11.2416 11.0817 11.4829 11.0817 11.7298C11.0813 12.0608 10.9496 12.3781 10.7156 12.6121C10.4816 12.8461 10.1643 12.9778 9.83334 12.9782ZM9.83334 11.0217C9.69335 11.0217 9.55651 11.0632 9.44011 11.141C9.32372 11.2188 9.23299 11.3293 9.17941 11.4586C9.12583 11.5879 9.11179 11.7302 9.13908 11.8675C9.16637 12.0048 9.23376 12.131 9.33273 12.23C9.43169 12.329 9.55779 12.3964 9.69508 12.4238C9.83237 12.4511 9.97468 12.4371 10.104 12.3836C10.2334 12.3301 10.3439 12.2394 10.4218 12.123C10.4996 12.0066 10.5411 11.8698 10.5412 11.7298C10.541 11.5421 10.4664 11.3621 10.3337 11.2294C10.201 11.0966 10.0211 11.0219 9.83334 11.0217Z"
                        fill="black"
                      />
                      <path
                        d="M6.38314 9.50164C6.13625 9.50164 5.8949 9.42843 5.68961 9.29127C5.48432 9.15411 5.32431 8.95915 5.22982 8.73106C5.13532 8.50296 5.11059 8.25197 5.15873 8.00981C5.20688 7.76766 5.32575 7.54522 5.50031 7.37062C5.67487 7.19602 5.89729 7.0771 6.13943 7.0289C6.38158 6.9807 6.63257 7.00539 6.86069 7.09983C7.08881 7.19428 7.28379 7.35424 7.421 7.5595C7.55821 7.76476 7.63147 8.0061 7.63152 8.25299C7.63116 8.584 7.49953 8.90135 7.2655 9.13543C7.03147 9.36951 6.71415 9.50121 6.38314 9.50164ZM6.38314 7.54515C6.24315 7.54515 6.10629 7.58667 5.98989 7.66445C5.87349 7.74222 5.78276 7.85277 5.72919 7.98211C5.67561 8.11145 5.6616 8.25378 5.68891 8.39108C5.71622 8.52839 5.78363 8.65452 5.88263 8.75351C5.98162 8.8525 6.10774 8.91992 6.24505 8.94723C6.38236 8.97454 6.52468 8.96052 6.65402 8.90695C6.78336 8.85337 6.89391 8.76265 6.97169 8.64625C7.04947 8.52984 7.09098 8.39299 7.09098 8.25299C7.09077 8.06533 7.01612 7.88541 6.88342 7.75271C6.75072 7.62001 6.57081 7.54537 6.38314 7.54515Z"
                        fill="black"
                      />
                    </svg>