<svg width="18" height="18" viewBox="0 0 18 18" fill="none" xmlns="http://www.w3.org/2000/svg">
<path fill-rule="evenodd" clip-rule="evenodd" d="M13.032 0H4.967C2.22533 0.00275511 0.00330714 2.22433 0 4.966V13.032C0.00220493 15.7744 2.22455 17.9972 4.967 18H13.032C15.7746 17.9972 17.9972 15.7746 18 13.032V4.966C17.9961 2.22417 15.7738 0.002754 13.032 0ZM16.403 13.033C16.4008 14.8935 14.8935 16.4013 13.033 16.404H4.96705C3.1066 16.4013 1.59925 14.8935 1.59705 13.033V4.96705C1.59925 3.10676 3.10676 1.59925 4.96705 1.59705H13.032C14.8927 1.5987 16.4008 3.10637 16.403 4.96705V13.033ZM9.00295 4.36208C7.12678 4.36087 5.43468 5.49011 4.71586 7.22312C3.99704 8.95612 4.39311 10.9515 5.71933 12.2786C7.04555 13.6057 9.04067 14.003 10.7741 13.2853C12.5076 12.5676 13.638 10.8763 13.638 9.00008C13.6357 6.43934 11.5607 4.36384 8.99995 4.36108L9.00295 4.36208ZM9.003 12.0411C7.77294 12.0411 6.66402 11.3 6.19339 10.1636C5.72276 9.02712 5.98312 7.71905 6.85304 6.84941C7.72297 5.97977 9.03112 5.71984 10.1674 6.19084C11.3037 6.66185 12.0444 7.77101 12.044 9.00107C12.0412 10.6803 10.6792 12.0401 9 12.0401L9.003 12.0411ZM13.836 3.00906C13.2784 3.00991 12.7991 3.40443 12.691 3.95144C12.5829 4.49845 12.8762 5.04565 13.3915 5.25852C13.9069 5.47138 14.5008 5.29064 14.8103 4.8268C15.1197 4.36296 15.0585 3.74514 14.664 3.35106C14.4433 3.13136 14.1445 3.00804 13.833 3.00806L13.836 3.00906Z" fill="white"/>
</svg>
