<svg width="216" height="57" viewBox="0 0 216 57" fill="none" xmlns="http://www.w3.org/2000/svg">
<rect width="216" height="57" rx="28.5" fill="url(#paint0_linear)"/>
<path fill-rule="evenodd" clip-rule="evenodd" d="M26.6641 17.7508V39.8074C26.6641 40.5751 27.1317 41.2388 27.8111 41.5556L41.2598 28.7753L27.8165 16C27.1342 16.3157 26.6641 16.9811 26.6641 17.7508ZM30.8254 40.8931L45.5248 32.8281L42.4184 29.8762L30.8254 40.8931ZM50.0939 27.2328C50.5828 27.5884 50.8982 28.1488 50.8982 28.7791C50.8982 29.3999 50.5924 29.9527 50.116 30.309L46.9937 32.0222L43.5769 28.7753L46.9914 25.5305L50.0939 27.2328ZM45.5225 24.7246L30.834 16.6657L42.4184 27.6743L45.5225 24.7246Z" fill="white"/>
<path d="M75.26 36.2C73.74 36.2 72.4267 35.8867 71.32 35.26C70.2133 34.62 69.36 33.7533 68.76 32.66C68.16 31.5667 67.86 30.3267 67.86 28.94C67.86 27.9 68.04 26.94 68.4 26.06C68.7733 25.1667 69.3 24.4 69.98 23.76C70.66 23.1067 71.46 22.6 72.38 22.24C73.3133 21.88 74.34 21.7 75.46 21.7C76.6333 21.7 77.7 21.92 78.66 22.36C79.62 22.7867 80.3933 23.3333 80.98 24L78.8 26.3C78.3333 25.86 77.8267 25.5067 77.28 25.24C76.7333 24.9733 76.1133 24.84 75.42 24.84C74.6867 24.84 74.0267 25.02 73.44 25.38C72.8533 25.7267 72.3867 26.2133 72.04 26.84C71.7067 27.4533 71.54 28.1533 71.54 28.94C71.54 29.7133 71.7133 30.4133 72.06 31.04C72.42 31.6533 72.9067 32.14 73.52 32.5C74.1333 32.86 74.82 33.04 75.58 33.04C76.34 33.04 76.9867 32.8267 77.52 32.4C78.0667 31.9733 78.3667 31.4333 78.42 30.78H75.1V28.04H81.76C81.7867 28.1867 81.8067 28.3933 81.82 28.66C81.8333 28.9267 81.84 29.1933 81.84 29.46C81.8533 29.7133 81.86 29.9 81.86 30.02C81.86 31.2333 81.5733 32.3067 81 33.24C80.4267 34.16 79.64 34.8867 78.64 35.42C77.6533 35.94 76.5267 36.2 75.26 36.2ZM89.1436 36.2C88.0369 36.2 87.0436 35.96 86.1636 35.48C85.2969 35 84.6103 34.3467 84.1036 33.52C83.5969 32.6933 83.3436 31.7467 83.3436 30.68C83.3436 29.6133 83.5969 28.6667 84.1036 27.84C84.6103 27 85.2969 26.34 86.1636 25.86C87.0436 25.38 88.0369 25.14 89.1436 25.14C90.2503 25.14 91.2369 25.38 92.1036 25.86C92.9836 26.34 93.6703 27 94.1636 27.84C94.6703 28.6667 94.9236 29.6133 94.9236 30.68C94.9236 31.7467 94.6703 32.6933 94.1636 33.52C93.6703 34.3467 92.9836 35 92.1036 35.48C91.2369 35.96 90.2503 36.2 89.1436 36.2ZM89.1436 33.3C89.8236 33.3 90.3836 33.0533 90.8236 32.56C91.2636 32.0667 91.4836 31.44 91.4836 30.68C91.4836 29.9067 91.2636 29.2733 90.8236 28.78C90.3836 28.2733 89.8236 28.02 89.1436 28.02C88.4636 28.02 87.8969 28.2733 87.4436 28.78C87.0036 29.2733 86.7836 29.9067 86.7836 30.68C86.7836 31.44 87.0036 32.0667 87.4436 32.56C87.8969 33.0533 88.4636 33.3 89.1436 33.3ZM102.034 36.2C100.928 36.2 99.9342 35.96 99.0542 35.48C98.1876 35 97.5009 34.3467 96.9942 33.52C96.4876 32.6933 96.2342 31.7467 96.2342 30.68C96.2342 29.6133 96.4876 28.6667 96.9942 27.84C97.5009 27 98.1876 26.34 99.0542 25.86C99.9342 25.38 100.928 25.14 102.034 25.14C103.141 25.14 104.128 25.38 104.994 25.86C105.874 26.34 106.561 27 107.054 27.84C107.561 28.6667 107.814 29.6133 107.814 30.68C107.814 31.7467 107.561 32.6933 107.054 33.52C106.561 34.3467 105.874 35 104.994 35.48C104.128 35.96 103.141 36.2 102.034 36.2ZM102.034 33.3C102.714 33.3 103.274 33.0533 103.714 32.56C104.154 32.0667 104.374 31.44 104.374 30.68C104.374 29.9067 104.154 29.2733 103.714 28.78C103.274 28.2733 102.714 28.02 102.034 28.02C101.354 28.02 100.788 28.2733 100.334 28.78C99.8942 29.2733 99.6742 29.9067 99.6742 30.68C99.6742 31.44 99.8942 32.0667 100.334 32.56C100.788 33.0533 101.354 33.3 102.034 33.3ZM114.765 40.6C113.872 40.6 112.985 40.4733 112.105 40.22C111.238 39.9667 110.532 39.6333 109.985 39.22L111.165 36.88C111.592 37.16 112.065 37.38 112.585 37.54C113.118 37.7133 113.685 37.8 114.285 37.8C115.272 37.8 115.998 37.58 116.465 37.14C116.932 36.7133 117.165 36.0467 117.165 35.14V34.68C116.805 35.04 116.352 35.3267 115.805 35.54C115.272 35.7533 114.705 35.86 114.105 35.86C113.145 35.86 112.292 35.64 111.545 35.2C110.798 34.76 110.205 34.1467 109.765 33.36C109.338 32.5733 109.125 31.66 109.125 30.62C109.125 29.5533 109.338 28.6133 109.765 27.8C110.192 26.9733 110.772 26.3267 111.505 25.86C112.238 25.38 113.078 25.14 114.025 25.14C114.705 25.14 115.332 25.2667 115.905 25.52C116.478 25.76 116.945 26.0733 117.305 26.46L117.365 25.36H120.565V35.1C120.565 36.8467 120.045 38.2 119.005 39.16C117.978 40.12 116.565 40.6 114.765 40.6ZM114.865 33.3C115.598 33.3 116.178 33.0667 116.605 32.6C117.032 32.12 117.245 31.4667 117.245 30.64C117.245 29.8267 117.032 29.18 116.605 28.7C116.178 28.22 115.598 27.98 114.865 27.98C114.132 27.98 113.552 28.22 113.125 28.7C112.698 29.18 112.485 29.8267 112.485 30.64C112.485 31.4533 112.698 32.1 113.125 32.58C113.552 33.06 114.132 33.3 114.865 33.3ZM123.322 36V21.2H126.722V36H123.322ZM134.438 36.2C133.251 36.2 132.218 35.9667 131.338 35.5C130.471 35.02 129.798 34.3667 129.318 33.54C128.838 32.7133 128.597 31.7733 128.597 30.72C128.597 29.6267 128.831 28.6667 129.298 27.84C129.764 27 130.404 26.34 131.218 25.86C132.031 25.38 132.958 25.14 133.998 25.14C134.998 25.14 135.884 25.3733 136.658 25.84C137.431 26.3067 138.031 26.9467 138.458 27.76C138.884 28.5733 139.091 29.5 139.078 30.54L139.058 31.4H131.878C132.051 31.9733 132.384 32.4267 132.878 32.76C133.384 33.0933 134.031 33.26 134.818 33.26C135.258 33.26 135.644 33.2 135.978 33.08C136.324 32.9467 136.691 32.7267 137.078 32.42L138.658 34.66C137.991 35.2067 137.304 35.6 136.598 35.84C135.891 36.08 135.171 36.2 134.438 36.2ZM134.058 27.94C132.844 27.94 132.104 28.4867 131.838 29.58H135.958V29.56C135.931 29.0933 135.738 28.7067 135.378 28.4C135.031 28.0933 134.591 27.94 134.058 27.94ZM147.919 36V22H154.019C154.913 22 155.713 22.2 156.419 22.6C157.126 23 157.679 23.5533 158.079 24.26C158.493 24.9533 158.699 25.7467 158.699 26.64C158.699 27.56 158.493 28.38 158.079 29.1C157.679 29.82 157.126 30.3933 156.419 30.82C155.713 31.2333 154.913 31.44 154.019 31.44H151.519V36H147.919ZM151.459 28.3H153.479C153.906 28.3 154.266 28.1533 154.559 27.86C154.853 27.5533 154.999 27.16 154.999 26.68C154.999 26.2 154.853 25.8267 154.559 25.56C154.266 25.28 153.906 25.14 153.479 25.14H151.459V28.3ZM160.959 36V21.2H164.359V36H160.959ZM170.874 36.18C169.994 36.18 169.201 35.9467 168.494 35.48C167.801 35 167.248 34.3467 166.834 33.52C166.434 32.68 166.234 31.7267 166.234 30.66C166.234 29.58 166.434 28.6267 166.834 27.8C167.248 26.9733 167.808 26.3267 168.514 25.86C169.234 25.38 170.054 25.14 170.974 25.14C171.668 25.14 172.274 25.2733 172.794 25.54C173.314 25.8067 173.748 26.1533 174.094 26.58V25.36H177.434V36H174.014V34.78C173.654 35.1933 173.208 35.5333 172.674 35.8C172.141 36.0533 171.541 36.18 170.874 36.18ZM171.834 33.36C172.541 33.36 173.094 33.12 173.494 32.64C173.908 32.1467 174.114 31.4867 174.114 30.66C174.114 29.8467 173.908 29.2 173.494 28.72C173.094 28.2267 172.541 27.98 171.834 27.98C171.141 27.98 170.588 28.2267 170.174 28.72C169.774 29.2 169.574 29.8467 169.574 30.66C169.574 31.4867 169.774 32.1467 170.174 32.64C170.588 33.12 171.141 33.36 171.834 33.36ZM181.301 40.6L183.441 35.6L178.721 25.36H182.541L184.621 30.32C184.794 30.7333 184.941 31.1467 185.061 31.56C185.114 31.4267 185.161 31.2867 185.201 31.14C185.254 30.98 185.314 30.82 185.381 30.66L187.221 25.36H191.041L186.501 36L184.661 40.6H181.301Z" fill="white"/>
<defs>
<linearGradient id="paint0_linear" x1="-24.8108" y1="27.9184" x2="232.054" y2="27.9184" gradientUnits="userSpaceOnUse">
<stop stop-color="#FB8E8C"/>
<stop offset="1" stop-color="#E812A4"/>
</linearGradient>
</defs>
</svg>
