<svg width="64" height="80" viewBox="0 0 64 80" fill="none" xmlns="http://www.w3.org/2000/svg">
<path d="M52.0554 77.0002H11.0123C5.92735 77.0002 1.93201 72.6225 2.40992 67.5567L6.94053 18.6376H56.1464L60.677 67.5567C61.1358 72.6225 57.1595 77.0002 52.0554 77.0002Z" stroke="#191919" stroke-width="2.3" stroke-miterlimit="10" stroke-linecap="round" stroke-linejoin="round"/>
<path d="M20.2246 26.8V14.317C20.2246 8.06587 25.2905 3 31.5416 3C37.7927 3 42.8585 8.06587 42.8585 14.317V26.8" stroke="#191919" stroke-width="2.3" stroke-miterlimit="10" stroke-linecap="round" stroke-linejoin="round"/>
<path d="M31.2217 57.1762V49.0708C29.7688 48.4591 28.6792 47.8091 27.9719 47.1591C26.9969 46.2607 26.519 45.1328 26.519 43.8138C26.519 42.4565 26.9587 41.3477 27.8572 40.4301C28.7365 39.5317 29.8644 38.9773 31.2408 38.7861V36.0525H32.9995V38.7861C34.9112 39.0346 36.3067 40.0478 37.2052 41.8256L35.4464 42.9726C34.7774 41.7874 33.9554 41.0992 32.9995 40.9272V47.4841C34.5862 48.1532 35.7523 48.8414 36.4596 49.5296C37.4537 50.4854 37.9507 51.6897 37.9507 53.1426C37.9507 54.6337 37.4919 55.9336 36.5743 57.0424C35.6567 58.1511 34.4715 58.8584 33.0186 59.1643V62.0891H31.2599V59.3172C29.8262 59.2408 28.5645 58.7246 27.494 57.7688C26.4235 56.7938 25.7544 55.6086 25.5059 54.1749L27.666 53.5632C27.7807 54.4999 28.1822 55.3219 28.8704 56.0292C29.5012 56.7174 30.3041 57.1188 31.2217 57.1762ZM31.2217 46.7003V40.8698C30.5144 41.0036 29.9218 41.3668 29.463 41.9403C28.9851 42.5138 28.7557 43.1447 28.7557 43.8711C28.7557 45.0181 29.5777 45.9548 31.2217 46.7003ZM32.9804 49.8737V57.0041C33.8215 56.7174 34.4715 56.2395 34.9685 55.5513C35.4464 54.8631 35.695 54.0793 35.695 53.1999C35.695 51.8427 34.7965 50.7339 32.9804 49.8737Z" fill="#EC2C7D"/>
</svg>
