<svg width="20" height="20" viewBox="0 0 20 20" fill="none" xmlns="http://www.w3.org/2000/svg">
<path fill-rule="evenodd" clip-rule="evenodd" d="M10.002 1.4778C8.04761 1.3555 6.11578 1.95088 4.56928 3.15212C3.02278 4.35337 1.96799 6.07786 1.60299 8.00177C1.23876 9.92159 1.58638 11.9082 2.58058 13.5901C2.68575 13.7608 2.71903 13.9721 2.66118 14.1746L1.7955 17.2045L4.82539 16.3388C5.02486 16.2818 5.2366 16.3128 5.40942 16.4191C7.09145 17.4136 9.07826 17.7613 10.9983 17.397C12.9222 17.032 14.6467 15.9772 15.8479 14.4307C17.0491 12.8842 17.6445 10.9524 17.5222 8.99795C17.3999 7.04354 16.5683 5.20101 15.1836 3.81634C13.799 2.43167 11.9564 1.60011 10.002 1.4778ZM4.93118 17.8292C6.86088 18.8878 9.10191 19.245 11.2708 18.8335C13.5447 18.4021 15.5828 17.1554 17.0026 15.3276C18.4223 13.4998 19.126 11.2165 18.9814 8.90663C18.8369 6.59671 17.854 4.41902 16.2175 2.78248C14.5809 1.14593 12.4032 0.163106 10.0933 0.0185573C7.78341 -0.125991 5.50018 0.57768 3.67237 1.99744C1.84456 3.41719 0.597912 5.45537 0.166512 7.72924C-0.244969 9.89812 0.112254 12.1391 1.1708 14.0688L0.389651 16.8028C0.318018 17.0535 0.314733 17.3188 0.380138 17.5713C0.445543 17.8237 0.577257 18.054 0.761633 18.2384C0.94601 18.4227 1.17634 18.5545 1.42874 18.6199C1.68115 18.6853 1.94646 18.682 2.19717 18.6103L4.93118 17.8292Z" fill="#C9C9C9"/>
<path d="M9.75004 10.8671C10.3714 10.8671 10.875 10.3635 10.875 9.74215C10.875 9.12083 10.3714 8.61715 9.75004 8.61715C9.12872 8.61715 8.62504 9.12083 8.62504 9.74215C8.62504 10.3635 9.12872 10.8671 9.75004 10.8671Z" fill="#C9C9C9"/>
<path d="M5.25009 10.8671C5.87141 10.8671 6.37509 10.3635 6.37509 9.74215C6.37509 9.12083 5.87141 8.61715 5.25009 8.61715C4.62877 8.61715 4.12509 9.12083 4.12509 9.74215C4.12509 10.3635 4.62877 10.8671 5.25009 10.8671Z" fill="#C9C9C9"/>
<path d="M14.25 10.8671C14.8714 10.8671 15.375 10.3635 15.375 9.74215C15.375 9.12083 14.8714 8.61715 14.25 8.61715C13.6287 8.61715 13.125 9.12083 13.125 9.74215C13.125 10.3635 13.6287 10.8671 14.25 10.8671Z" fill="#C9C9C9"/>
</svg>
