<svg width="19" height="19" viewBox="0 0 19 19" fill="none" xmlns="http://www.w3.org/2000/svg">
<path d="M5.27773 14.5676C4.01106 14.5676 2.95551 13.6176 2.84995 12.2454L2.00551 1.68982L0.633284 1.4787C0.211062 1.37315 -0.105605 0.950927 -4.95855e-05 0.63426C0.105506 0.212038 0.422173 -0.104629 0.844395 0.000926977L2.84995 0.317594C3.16662 0.423149 3.37773 0.739816 3.37773 1.05648L3.58884 3.80093C17.1 3.80093 17.2055 3.80093 17.3111 3.80093C17.8388 3.90648 18.2611 4.11759 18.5777 4.64537C18.8944 5.06759 19 5.59537 19 6.12315L18.0499 12.4565C17.8388 13.6176 16.8888 14.5676 15.6222 14.5676H5.27773ZM3.6944 5.17315L4.22217 12.1398C4.22217 12.6676 4.74995 13.0898 5.17217 13.0898H15.5166C16.0444 13.0898 16.4666 12.6676 16.4666 12.2454L17.4166 5.91204C17.4166 5.80648 17.4166 5.59537 17.3111 5.48982C17.4166 5.2787 17.2055 5.27871 17.1 5.17315C16.8888 5.17315 8.65551 5.17315 3.6944 5.17315Z" fill="#C9C9C9"/>
<path d="M14.1444 8.76285H11.5055C11.0833 8.76285 10.7666 8.44618 10.7666 8.02396C10.7666 7.60174 11.0833 7.39062 11.5055 7.39062H14.1444C14.5666 7.39062 14.8833 7.70729 14.8833 8.12951C14.8833 8.55174 14.5666 8.76285 14.1444 8.76285Z" fill="#C9C9C9"/>
<path d="M4.96109 19.0003C4.2222 19.0003 3.58887 18.367 3.58887 17.6281C3.58887 16.8892 4.2222 16.2559 4.96109 16.2559C5.69998 16.2559 6.33331 16.8892 6.33331 17.6281C6.33331 18.367 5.69998 19.0003 4.96109 19.0003Z" fill="#C9C9C9"/>
<path d="M15.5168 19.0003C14.7779 19.0003 14.1445 18.367 14.1445 17.6281C14.1445 16.8892 14.7779 16.2559 15.5168 16.2559C16.2556 16.2559 16.889 16.8892 16.889 17.6281C16.889 18.367 16.2556 19.0003 15.5168 19.0003Z" fill="#C9C9C9"/>
</svg>
