<svg width="15" height="14" viewBox="0 0 15 14" fill="none" xmlns="http://www.w3.org/2000/svg">
<path d="M6.71648 3.23372L7.15493 4.0337L7.59341 3.23373C7.81031 2.838 8.17074 2.31027 8.69847 1.90279C9.24043 1.48433 9.84538 1.27686 10.5088 1.27686C12.3629 1.27686 13.8099 2.78432 13.8099 4.89303C13.8099 6.00653 13.369 6.96463 12.5201 7.98738C11.6585 9.02539 10.4158 10.0848 8.86125 11.4074L8.86124 11.4074L8.86074 11.4078C8.34642 11.8454 7.76263 12.3421 7.15496 12.8722C6.54769 12.3425 5.96418 11.846 5.45036 11.4089L5.44899 11.4077L5.44898 11.4077C3.89428 10.085 2.65152 9.02546 1.78985 7.98741C0.940854 6.96463 0.5 6.00653 0.5 4.89303C0.5 2.78432 1.94701 1.27686 3.80107 1.27686C4.46452 1.27686 5.06947 1.48433 5.61143 1.90279L5.91454 1.51023L5.61143 1.90279C6.13916 2.31027 6.49959 2.83798 6.71648 3.23372ZM7.18968 12.9025L7.18943 12.9023L7.18968 12.9025Z" fill="url(#paint0_linear)" stroke="url(#paint1_linear)"/>
<defs>
<linearGradient id="paint0_linear" x1="0" y1="0.776855" x2="15.7372" y2="2.92286" gradientUnits="userSpaceOnUse">
<stop stop-color="#FD37AE"/>
<stop offset="1" stop-color="#FD374F"/>
</linearGradient>
<linearGradient id="paint1_linear" x1="0" y1="0.776855" x2="15.7372" y2="2.92286" gradientUnits="userSpaceOnUse">
<stop stop-color="#FD37AE"/>
<stop offset="1" stop-color="#FD374F"/>
</linearGradient>
</defs>
</svg>
