<svg width="216" height="57" viewBox="0 0 216 57" fill="none" xmlns="http://www.w3.org/2000/svg">
<rect width="216" height="57" rx="28.5" fill="url(#paint0_linear)"/>
<path fill-rule="evenodd" clip-rule="evenodd" d="M54.5434 13C52.9748 13.0548 51.0742 13.8711 49.9494 14.9685C48.9382 15.9431 48.0555 17.4984 48.2935 18.9898C50.0447 19.104 51.8291 18.2487 52.9192 17.1507C54.0072 16.0508 54.7438 14.5243 54.5434 13ZM54.2832 40.9631C56.311 40.9279 57.5954 39.2514 58.8371 37.5645C60.1976 35.7167 60.7984 33.9251 60.888 33.658C60.8929 33.6432 60.8963 33.633 60.8982 33.6278C60.8973 33.6275 60.8948 33.6265 60.8907 33.625C60.6957 33.5513 56.9423 32.1327 56.905 28.0321C56.8683 24.6458 59.7732 22.9613 60.0931 22.7759C60.1042 22.7695 60.1122 22.7648 60.1168 22.762C58.3683 20.385 55.6457 20.059 54.6756 20.0218C53.2586 19.8886 51.8839 20.3921 50.7606 20.8035C50.0468 21.065 49.4346 21.2892 48.9776 21.2892C48.469 21.2892 47.84 21.0572 47.1341 20.7967C46.2102 20.4559 45.1545 20.0664 44.0646 20.085C41.5403 20.1201 39.2108 21.4507 37.9107 23.5538C35.2854 27.7885 37.2375 34.0634 39.795 37.497C41.0469 39.1763 42.5355 41.0663 44.4932 40.9982C45.3673 40.9656 45.9894 40.7194 46.6327 40.4647C47.3762 40.1704 48.1482 39.8648 49.3703 39.8648C50.5344 39.8648 51.2706 40.161 51.9787 40.4458C52.656 40.7182 53.3076 40.9803 54.2832 40.9631Z" fill="white"/>
<path d="M79.2809 36L84.8409 22H87.8409L93.3409 36H89.7209L88.7809 33.46H83.7609L82.8209 36H79.2809ZM85.3609 29.14L84.7409 30.8H87.8009L87.1609 29.1C87.0142 28.6733 86.8609 28.24 86.7009 27.8C86.5542 27.36 86.4142 26.9133 86.2809 26.46C86.1475 26.9 86.0075 27.3333 85.8609 27.76C85.7142 28.1867 85.5475 28.6467 85.3609 29.14ZM94.668 40.4V25.36H97.868L97.928 26.46C98.2747 26.0733 98.7347 25.76 99.308 25.52C99.8814 25.28 100.501 25.16 101.168 25.16C102.075 25.16 102.875 25.3933 103.568 25.86C104.275 26.3267 104.828 26.98 105.228 27.82C105.641 28.6467 105.848 29.6 105.848 30.68C105.848 31.7333 105.641 32.68 105.228 33.52C104.828 34.3467 104.268 35 103.548 35.48C102.841 35.9467 102.035 36.18 101.128 36.18C100.528 36.18 99.9614 36.0733 99.428 35.86C98.8947 35.6333 98.4414 35.34 98.068 34.98V40.4H94.668ZM100.268 33.34C100.948 33.34 101.495 33.1 101.908 32.62C102.321 32.14 102.528 31.4933 102.528 30.68C102.528 29.8533 102.321 29.2 101.908 28.72C101.508 28.24 100.961 28 100.268 28C99.5614 28 99.0014 28.24 98.588 28.72C98.1747 29.2 97.968 29.8533 97.968 30.68C97.968 31.4933 98.1747 32.14 98.588 32.62C99.0014 33.1 99.5614 33.34 100.268 33.34ZM107.93 40.4V25.36H111.13L111.19 26.46C111.536 26.0733 111.996 25.76 112.57 25.52C113.143 25.28 113.763 25.16 114.43 25.16C115.336 25.16 116.136 25.3933 116.83 25.86C117.536 26.3267 118.09 26.98 118.49 27.82C118.903 28.6467 119.11 29.6 119.11 30.68C119.11 31.7333 118.903 32.68 118.49 33.52C118.09 34.3467 117.53 35 116.81 35.48C116.103 35.9467 115.296 36.18 114.39 36.18C113.79 36.18 113.223 36.0733 112.69 35.86C112.156 35.6333 111.703 35.34 111.33 34.98V40.4H107.93ZM113.53 33.34C114.21 33.34 114.756 33.1 115.17 32.62C115.583 32.14 115.79 31.4933 115.79 30.68C115.79 29.8533 115.583 29.2 115.17 28.72C114.77 28.24 114.223 28 113.53 28C112.823 28 112.263 28.24 111.85 28.72C111.436 29.2 111.23 29.8533 111.23 30.68C111.23 31.4933 111.436 32.14 111.85 32.62C112.263 33.1 112.823 33.34 113.53 33.34ZM132.734 36.2C131.294 36.2 130.088 35.9533 129.114 35.46C128.141 34.9667 127.308 34.28 126.614 33.4L128.774 30.96C129.441 31.84 130.114 32.4333 130.794 32.74C131.488 33.0467 132.181 33.2 132.874 33.2C133.394 33.2 133.821 33.1067 134.154 32.92C134.488 32.7333 134.654 32.4533 134.654 32.08C134.654 31.76 134.514 31.4933 134.234 31.28C133.968 31.0667 133.628 30.9 133.214 30.78C132.801 30.6467 132.381 30.5333 131.954 30.44C130.408 30.1067 129.254 29.58 128.494 28.86C127.734 28.14 127.354 27.1867 127.354 26C127.354 25.1333 127.601 24.38 128.094 23.74C128.601 23.0867 129.261 22.58 130.074 22.22C130.888 21.8467 131.761 21.66 132.694 21.66C134.108 21.66 135.228 21.88 136.054 22.32C136.881 22.7467 137.548 23.3333 138.054 24.08L135.874 26.18C135.448 25.6867 134.974 25.32 134.454 25.08C133.934 24.8267 133.394 24.7 132.834 24.7C132.274 24.7 131.828 24.7933 131.494 24.98C131.161 25.1667 130.994 25.44 130.994 25.8C130.994 26.08 131.108 26.3133 131.334 26.5C131.574 26.6867 131.874 26.84 132.234 26.96C132.594 27.0667 132.968 27.16 133.354 27.24C134.328 27.4267 135.181 27.7 135.914 28.06C136.661 28.42 137.241 28.8933 137.654 29.48C138.068 30.0533 138.274 30.7667 138.274 31.62C138.274 32.6067 138.034 33.44 137.554 34.12C137.074 34.8 136.414 35.32 135.574 35.68C134.748 36.0267 133.801 36.2 132.734 36.2ZM141.23 36V28.3H139.39V25.36H141.23V22.68H144.63V25.36H146.61V28.3H144.63V36H141.23ZM153.399 36.2C152.293 36.2 151.299 35.96 150.419 35.48C149.553 35 148.866 34.3467 148.359 33.52C147.853 32.6933 147.599 31.7467 147.599 30.68C147.599 29.6133 147.853 28.6667 148.359 27.84C148.866 27 149.553 26.34 150.419 25.86C151.299 25.38 152.293 25.14 153.399 25.14C154.506 25.14 155.493 25.38 156.359 25.86C157.239 26.34 157.926 27 158.419 27.84C158.926 28.6667 159.179 29.6133 159.179 30.68C159.179 31.7467 158.926 32.6933 158.419 33.52C157.926 34.3467 157.239 35 156.359 35.48C155.493 35.96 154.506 36.2 153.399 36.2ZM153.399 33.3C154.079 33.3 154.639 33.0533 155.079 32.56C155.519 32.0667 155.739 31.44 155.739 30.68C155.739 29.9067 155.519 29.2733 155.079 28.78C154.639 28.2733 154.079 28.02 153.399 28.02C152.719 28.02 152.153 28.2733 151.699 28.78C151.259 29.2733 151.039 29.9067 151.039 30.68C151.039 31.44 151.259 32.0667 151.699 32.56C152.153 33.0533 152.719 33.3 153.399 33.3ZM161.25 36V25.36H164.45L164.51 26.94C164.87 26.4067 165.323 25.9733 165.87 25.64C166.43 25.3067 167.023 25.14 167.65 25.14C167.877 25.14 168.097 25.16 168.31 25.2C168.523 25.24 168.717 25.2867 168.89 25.34L167.97 29.08C167.823 29 167.623 28.9267 167.37 28.86C167.117 28.78 166.843 28.74 166.55 28.74C165.99 28.74 165.53 28.9267 165.17 29.3C164.823 29.6733 164.65 30.16 164.65 30.76V36H161.25ZM175.139 36.2C173.952 36.2 172.919 35.9667 172.039 35.5C171.172 35.02 170.499 34.3667 170.019 33.54C169.539 32.7133 169.299 31.7733 169.299 30.72C169.299 29.6267 169.532 28.6667 169.999 27.84C170.465 27 171.105 26.34 171.919 25.86C172.732 25.38 173.659 25.14 174.699 25.14C175.699 25.14 176.585 25.3733 177.359 25.84C178.132 26.3067 178.732 26.9467 179.159 27.76C179.585 28.5733 179.792 29.5 179.779 30.54L179.759 31.4H172.579C172.752 31.9733 173.085 32.4267 173.579 32.76C174.085 33.0933 174.732 33.26 175.519 33.26C175.959 33.26 176.345 33.2 176.679 33.08C177.025 32.9467 177.392 32.7267 177.779 32.42L179.359 34.66C178.692 35.2067 178.005 35.6 177.299 35.84C176.592 36.08 175.872 36.2 175.139 36.2ZM174.759 27.94C173.545 27.94 172.805 28.4867 172.539 29.58H176.659V29.56C176.632 29.0933 176.439 28.7067 176.079 28.4C175.732 28.0933 175.292 27.94 174.759 27.94Z" fill="white"/>
<defs>
<linearGradient id="paint0_linear" x1="-24.8108" y1="27.9184" x2="232.054" y2="27.9184" gradientUnits="userSpaceOnUse">
<stop stop-color="#FB8E8C"/>
<stop offset="1" stop-color="#E812A4"/>
</linearGradient>
</defs>
</svg>
