<svg width="38" height="28" viewBox="0 0 38 28" fill="none" xmlns="http://www.w3.org/2000/svg">
<path d="M35.5217 0H2.47826C1.10956 0 0 1.10612 0 2.47059V25.5294C0 26.8939 1.10956 28 2.47826 28H35.5217C36.8904 28 38 26.8939 38 25.5294V2.47059C38 1.10612 36.8904 0 35.5217 0Z" fill="white"/>
<path d="M19.9796 11.1875H12.875V5.5H25.125V11.1875H23.8125" stroke="#1A1A1A" stroke-width="0.5" stroke-linecap="round" stroke-linejoin="round"/>
<path d="M15.5 5.5V4.1875C15.5 3.70428 15.8918 3.3125 16.375 3.3125C16.8582 3.3125 17.25 3.70428 17.25 4.1875V5.5" stroke="#1A1A1A" stroke-width="0.5" stroke-linecap="round" stroke-linejoin="round"/>
<path d="M17.25 5.5V3.75C17.25 3.26678 17.6418 2.875 18.125 2.875C18.6082 2.875 19 3.26678 19 3.75V5.5" stroke="#1A1A1A" stroke-width="0.5" stroke-linecap="round" stroke-linejoin="round"/>
<path d="M19 5.5V3.3125C19 2.82928 19.3918 2.4375 19.875 2.4375C20.3582 2.4375 20.75 2.82928 20.75 3.3125V5.5" stroke="#1A1A1A" stroke-width="0.5" stroke-linecap="round" stroke-linejoin="round"/>
<path d="M20.75 5.5V3.75C20.75 3.26678 21.1418 2.875 21.625 2.875C22.1082 2.875 22.5 3.26678 22.5 3.75V5.5" stroke="#1A1A1A" stroke-width="0.5" stroke-linecap="round" stroke-linejoin="round"/>
<path d="M19 9.4375C19.6041 9.4375 20.0938 8.94781 20.0938 8.34375C20.0938 7.73969 19.6041 7.25 19 7.25C18.3959 7.25 17.9062 7.73969 17.9062 8.34375C17.9062 8.94781 18.3959 9.4375 19 9.4375Z" stroke="#1A1A1A" stroke-width="0.5" stroke-linecap="round" stroke-linejoin="round"/>
<path d="M16.375 7.25H14.625" stroke="#1A1A1A" stroke-width="0.5" stroke-linecap="round" stroke-linejoin="round"/>
<path d="M15.5 11.1875V11.4062C15.5 13.7016 17.3609 15.5625 19.6562 15.5625C21.9516 15.5625 23.8125 13.7016 23.8125 11.4062V11.1875V7.25C22.824 7.25 22.0625 8.01147 22.0625 9V10.3125C20.7135 10.3125 19.4375 11.2603 19.4375 12.5" stroke="#1A1A1A" stroke-width="0.5" stroke-linecap="round" stroke-linejoin="round"/>
<path d="M3.848 24V19.016H2.24V18.4H6.136V19.016H4.48V24H3.848ZM7.343 18.92C7.19367 18.92 7.079 18.8827 6.999 18.808C6.919 18.728 6.879 18.6187 6.879 18.48C6.879 18.3467 6.919 18.24 6.999 18.16C7.079 18.08 7.19367 18.04 7.343 18.04C7.487 18.04 7.599 18.08 7.679 18.16C7.759 18.2347 7.799 18.3413 7.799 18.48C7.799 18.6133 7.759 18.72 7.679 18.8C7.599 18.88 7.487 18.92 7.343 18.92ZM7.039 24V19.816H7.655V24H7.039ZM10.7211 24.08C10.2997 24.08 9.9264 23.9893 9.60106 23.808C9.28106 23.6267 9.0304 23.3733 8.84906 23.048C8.66773 22.7227 8.57706 22.3493 8.57706 21.928C8.57706 21.5013 8.66506 21.1227 8.84106 20.792C9.01706 20.4613 9.2624 20.2027 9.57706 20.016C9.89173 19.824 10.2517 19.728 10.6571 19.728C11.0304 19.728 11.3584 19.816 11.6411 19.992C11.9291 20.1627 12.1504 20.4 12.3051 20.704C12.4597 21.0027 12.5317 21.3493 12.5211 21.744L12.5131 22.024H9.20106C9.22773 22.4773 9.3824 22.8373 9.66506 23.104C9.94773 23.3707 10.3237 23.504 10.7931 23.504C10.9957 23.504 11.1931 23.472 11.3851 23.408C11.5824 23.3387 11.7984 23.2053 12.0331 23.008L12.3451 23.448C12.1584 23.6293 11.9211 23.7813 11.6331 23.904C11.3451 24.0213 11.0411 24.08 10.7211 24.08ZM10.6491 20.304C10.2651 20.304 9.94773 20.408 9.69706 20.616C9.4464 20.8187 9.28906 21.1173 9.22506 21.512H11.9051V21.464C11.8944 21.272 11.8384 21.088 11.7371 20.912C11.6357 20.7307 11.4917 20.584 11.3051 20.472C11.1237 20.36 10.9051 20.304 10.6491 20.304ZM11.7851 18.136L10.9291 17.192L11.4971 16.8L12.0971 17.904L11.7851 18.136ZM9.72906 19.152L9.46506 18.92L10.3611 18.064H10.9531L11.8491 18.92L11.5851 19.152L10.6571 18.552L9.72906 19.152ZM13.3809 24V19.816H13.9809L13.9969 20.528C14.1249 20.304 14.3222 20.1147 14.5889 19.96C14.8609 19.8053 15.1462 19.728 15.4449 19.728C15.9089 19.728 16.2582 19.872 16.4929 20.16C16.7329 20.4427 16.8529 20.8747 16.8529 21.456V24H16.2369V21.496C16.2369 20.68 15.9089 20.28 15.2529 20.296C15.0075 20.296 14.7889 20.3493 14.5969 20.456C14.4102 20.5627 14.2609 20.704 14.1489 20.88C14.0422 21.056 13.9889 21.248 13.9889 21.456V24H13.3809ZM20.2323 24V19.816H20.8403L20.8483 20.536C20.9869 20.296 21.1843 20.104 21.4403 19.96C21.6963 19.8107 21.9736 19.736 22.2723 19.736C22.5709 19.736 22.8243 19.8053 23.0323 19.944C23.2456 20.0827 23.4056 20.32 23.5123 20.656C23.5923 20.4907 23.7096 20.3387 23.8643 20.2C24.0189 20.0613 24.1949 19.9493 24.3923 19.864C24.5949 19.7787 24.8083 19.736 25.0323 19.736C25.4749 19.736 25.8109 19.88 26.0403 20.168C26.2749 20.4507 26.3923 20.888 26.3923 21.48V24H25.7763V21.512C25.7763 21.1013 25.6989 20.8 25.5443 20.608C25.3896 20.4107 25.1576 20.312 24.8483 20.312C24.6083 20.312 24.3949 20.3653 24.2083 20.472C24.0216 20.5787 23.8749 20.72 23.7682 20.896C23.6669 21.072 23.6163 21.264 23.6163 21.472V24H23.0003V21.504C23.0003 20.7093 22.6909 20.312 22.0723 20.312C21.8376 20.312 21.6269 20.3653 21.4403 20.472C21.2536 20.5733 21.1069 20.712 21.0003 20.888C20.8989 21.064 20.8483 21.256 20.8483 21.464V24H20.2323ZM29.1613 24.08C28.7986 24.08 28.4706 23.9867 28.1773 23.8C27.884 23.608 27.652 23.3493 27.4813 23.024C27.3106 22.6933 27.2253 22.32 27.2253 21.904C27.2253 21.4827 27.3133 21.1093 27.4893 20.784C27.6653 20.4533 27.9026 20.1947 28.2013 20.008C28.5 19.8213 28.8333 19.728 29.2013 19.728C29.5373 19.728 29.836 19.8053 30.0973 19.96C30.364 20.1147 30.5666 20.3147 30.7053 20.56L30.7213 19.816H31.3293V24H30.7133V23.256C30.564 23.4907 30.3506 23.688 30.0733 23.848C29.796 24.0027 29.492 24.08 29.1613 24.08ZM29.2973 23.496C29.5746 23.496 29.8226 23.4293 30.0413 23.296C30.26 23.1573 30.4306 22.968 30.5533 22.728C30.6813 22.488 30.7453 22.2107 30.7453 21.896C30.7453 21.592 30.6813 21.32 30.5533 21.08C30.4306 20.84 30.26 20.6533 30.0413 20.52C29.8226 20.3813 29.5746 20.312 29.2973 20.312C29.0146 20.312 28.764 20.3813 28.5453 20.52C28.332 20.6533 28.164 20.84 28.0413 21.08C27.9186 21.32 27.8573 21.592 27.8573 21.896C27.8573 22.2053 27.9186 22.4827 28.0413 22.728C28.164 22.968 28.332 23.1573 28.5453 23.296C28.764 23.4293 29.0146 23.496 29.2973 23.496ZM29.4333 25.488C29.2893 25.488 29.1773 25.448 29.0973 25.368C29.0173 25.2933 28.9773 25.1867 28.9773 25.048C28.9773 24.9147 29.0173 24.808 29.0973 24.728C29.1773 24.648 29.2893 24.608 29.4333 24.608C29.5773 24.608 29.6893 24.6453 29.7693 24.72C29.8546 24.8 29.8973 24.9093 29.8973 25.048C29.8973 25.1813 29.8546 25.288 29.7693 25.368C29.6893 25.448 29.5773 25.488 29.4333 25.488ZM29.4333 19.256C29.1186 19.256 28.8546 19.1547 28.6413 18.952C28.428 18.744 28.2866 18.464 28.2173 18.112L28.6893 18.04C28.748 18.264 28.844 18.4427 28.9773 18.576C29.1106 18.704 29.2626 18.768 29.4333 18.768C29.604 18.768 29.756 18.704 29.8893 18.576C30.0226 18.4427 30.1213 18.264 30.1853 18.04L30.6493 18.112C30.58 18.464 30.4386 18.744 30.2253 18.952C30.012 19.1547 29.748 19.256 29.4333 19.256ZM33.0663 24V20.4H32.1303V19.816H33.0663V18.728H33.6743V19.816H34.7223V20.4H33.6743V24H33.0663Z" fill="#1A1A1A"/>
</svg>
