<svg width="264" height="332" viewBox="0 0 264 332" fill="none" xmlns="http://www.w3.org/2000/svg">
<path opacity="0.8" fill-rule="evenodd" clip-rule="evenodd" d="M0.105006 20.3226C0.105006 9.09875 9.20374 0 20.4276 0C31.6515 0 40.7502 9.09874 40.7502 20.3226V207.587C44.3931 254.602 83.8832 291.768 132 291.768C182.516 291.768 223.613 250.829 223.613 200.507C223.613 150.185 182.516 109.245 132 109.245C128.074 109.245 124.141 109.487 120.32 109.977C109.287 111.385 99.1494 103.564 97.744 92.549C96.3385 81.5336 104.174 71.4595 115.24 70.0595C120.74 69.3675 126.378 69.0135 132 69.0135C204.785 69.0135 264 128.001 264 200.507C264 273.012 204.785 332 132 332C82.9301 332 40.1121 305.133 17.3663 265.441C6.69612 246.821 0.460409 225.41 0.105006 202.559C0.0969282 201.867 0 201.199 0 200.507C0 200.153 0.0888508 199.823 0.105006 199.469V20.3226Z" fill="#F1F1F1"/>
</svg>
