<svg width="80" height="80" viewBox="0 0 80 80" fill="none" xmlns="http://www.w3.org/2000/svg">
<path d="M49.6856 25.5C47.0584 25.5 44.5067 26.0095 42.1017 27.0141C41.3054 27.3467 40.9296 28.2619 41.2621 29.0581C41.5948 29.8545 42.5099 30.2298 43.3062 29.8977C45.3278 29.0531 47.474 28.625 49.6856 28.625C58.8182 28.625 66.2481 36.055 66.2481 45.1875C66.2481 54.32 58.8182 61.75 49.6856 61.75C40.5529 61.75 33.1231 54.32 33.1231 45.1875C33.1231 42.9794 33.5499 40.8359 34.392 38.8172C34.7241 38.0206 34.3477 37.1058 33.5513 36.7736C32.7554 36.4419 31.8399 36.8178 31.5077 37.6142C30.506 40.0163 29.998 42.5642 29.998 45.1875C29.998 56.0433 38.8298 64.875 49.6856 64.875C60.5414 64.875 69.3731 56.0433 69.3731 45.1875C69.3731 34.3317 60.5414 25.5 49.6856 25.5Z" fill="black"/>
<path d="M49.6856 58C56.7504 58 62.4981 52.2523 62.4981 45.1875C62.4981 38.1227 56.7504 32.375 49.6856 32.375C42.6207 32.375 36.873 38.1227 36.873 45.1875C36.873 52.2523 42.6209 58 49.6856 58ZM49.6856 35.5C55.0273 35.5 59.3731 39.8459 59.3731 45.1875C59.3731 50.5291 55.0273 54.875 49.6856 54.875C44.3438 54.875 39.9981 50.5292 39.9981 45.1875C39.9981 39.8458 44.3438 35.5 49.6856 35.5Z" fill="black"/>
<path d="M72.0756 18H67.3225L61.867 8.76766C61.5859 8.29187 61.0744 8 60.5219 8H38.8552C38.3025 8 37.7911 8.29187 37.51 8.76766L32.0545 18H23.125V16.125C23.125 13.0233 20.6017 10.5 17.5 10.5C14.3983 10.5 11.875 13.0233 11.875 16.125V18H7.92438C3.55484 18 0 21.5548 0 25.9245V64.4505C0 68.8202 3.55484 72.375 7.92438 72.375H72.0755C76.445 72.375 79.9998 68.8202 79.9998 64.4505V25.9245C80 21.5548 76.445 18 72.0756 18ZM39.7467 11.125H59.6302L63.6927 18H35.6842L39.7467 11.125ZM15 16.125C15 14.7466 16.1216 13.625 17.5 13.625C18.8784 13.625 20 14.7466 20 16.125V18H15V16.125ZM76.875 64.4505C76.875 67.097 74.722 69.25 72.0756 69.25H7.92438C5.27797 69.25 3.125 67.0969 3.125 64.4505V25.9245C3.125 23.278 5.27797 21.125 7.92438 21.125H72.0755C74.7219 21.125 76.8748 23.278 76.8748 25.9245V64.4505H76.875Z" fill="black"/>
<path d="M49.6855 42.1406C51.3657 42.1406 52.7324 43.5075 52.7324 45.1875C52.7324 46.0505 53.432 46.75 54.2949 46.75C55.1579 46.75 55.8574 46.0505 55.8574 45.1875C55.8574 41.7844 53.0887 39.0156 49.6855 39.0156C48.8226 39.0156 48.123 39.7153 48.123 40.5781C48.123 41.4409 48.8226 42.1406 49.6855 42.1406Z" fill="#EC2C7D"/>
<path d="M21.5625 30.8125H13.4375C12.5745 30.8125 11.875 31.5122 11.875 32.375C11.875 33.238 12.5745 33.9375 13.4375 33.9375H21.5625C22.4255 33.9375 23.125 33.238 23.125 32.375C23.125 31.512 22.4255 30.8125 21.5625 30.8125Z" fill="#EC2C7D"/>
<path d="M36.8652 33.9374C37.2762 33.9374 37.6793 33.7702 37.9699 33.4796C38.2605 33.189 38.4277 32.7873 38.4277 32.3749C38.4277 31.964 38.2605 31.5608 37.9699 31.2702C37.6793 30.9798 37.2762 30.8124 36.8652 30.8124C36.4543 30.8124 36.0512 30.9796 35.7605 31.2702C35.4684 31.5608 35.3027 31.9641 35.3027 32.3749C35.3027 32.7858 35.4684 33.189 35.7605 33.4796C36.0512 33.7702 36.4527 33.9374 36.8652 33.9374Z" fill="black"/>
</svg>
