<svg width="80" height="80" viewBox="0 0 80 80" fill="none" xmlns="http://www.w3.org/2000/svg">
<path d="M64.8357 61.8776C64.0192 61.3025 47.1159 49.3974 46.3062 48.8271C45.9318 48.5634 45.4323 48.5634 45.0578 48.8271L26.5281 61.8776C25.666 62.4849 26.097 63.8478 27.1523 63.8478H64.2115C65.2662 63.8478 65.6986 62.4853 64.8357 61.8776ZM30.574 61.6799L45.6819 51.0392C48.8131 53.2445 48.5022 53.0255 52.727 56.0011L52.8475 61.6799H30.574ZM55.0162 61.6799L54.9286 57.5516L60.7901 61.6799H55.0162Z" fill="black"/>
<path d="M75.6109 63.3459L54.7392 48.6457L54.6496 44.4265H58.7042C59.8597 44.4265 60.7998 43.4863 60.7998 42.3308V27.9316C60.7998 26.7761 59.8597 25.836 58.7042 25.836H45.6091C45.5935 25.8358 45.578 25.836 45.5624 25.836C45.5607 25.836 45.559 25.8358 45.5571 25.8358C45.5548 25.8358 45.5525 25.836 45.5501 25.836C45.5354 25.836 45.5207 25.8358 45.5061 25.836H40.944L34.7013 21.439V21.2767C38.6673 19.9995 41.3463 16.2208 41.1738 11.9772C40.9788 7.17838 37.1308 3.2697 32.3245 3.01374C27.927 2.77916 24.0147 5.5699 22.8103 9.79409C22.3746 11.3235 23.2641 12.9224 24.7937 13.3584C26.3227 13.7937 27.9219 12.9044 28.3578 11.3753C28.8199 9.75391 30.3249 8.68467 32.0182 8.7737C33.8459 8.87112 35.3359 10.3812 35.4105 12.2115C35.4817 13.9631 34.2966 15.5049 32.5927 15.8778C30.4722 16.3417 28.9331 18.2673 28.9331 20.4565V21.6129L22.9375 25.836H13.0795C12.4809 25.836 11.9955 26.3211 11.9955 26.9199C11.9955 27.5187 12.4809 28.0039 13.0795 28.0039H21.9193C22.0709 29.4167 22.5409 30.841 23.287 32.0879C23.3043 32.1168 23.3232 32.1444 23.3431 32.1713C25.1164 35.0641 28.3059 36.9992 31.9407 36.9992C33.8334 36.9992 35.6925 36.4599 37.2871 35.4627C38.8092 36.9853 41.4886 36.3526 42.0989 34.2109C42.5433 32.6517 43.9344 31.6042 45.5604 31.6042C45.6266 31.6042 45.6931 31.6059 45.7593 31.6094C48.5194 31.7565 50.0975 34.909 48.5437 37.219C48.0142 38.006 47.2036 38.5233 46.3338 38.7135C44.8759 39.0324 43.6929 40.0423 43.0959 41.3536C42.8245 41.9496 42.6741 42.608 42.6741 43.2922V44.3847L15.7525 63.3459C15.7118 63.3745 15.6728 63.4045 15.6339 63.4345C13.3979 65.1657 14.5715 68.7859 17.5563 68.7859H52.9982L53.1266 74.8322H11.0348L11.7029 43.3656C11.7089 43.0741 11.5975 42.7925 11.3937 42.5843C11.1898 42.3762 10.9105 42.2586 10.6192 42.2586H5.27733V28.0039H8.02095C8.6196 28.0039 9.10493 27.5187 9.10493 26.9199C9.10493 26.3211 8.6196 25.836 8.02095 25.836H5.20507C4.04955 25.836 3.10938 26.7761 3.10938 27.9316V42.3308C3.10938 43.4863 4.04955 44.4265 5.20507 44.4265H9.51164L8.86559 74.862L8.86515 74.9047C8.86515 75.2088 8.92918 75.5027 9.05564 75.7778C9.05637 75.7796 9.05709 75.7812 9.05796 75.7829C9.39977 76.5222 10.1458 76.9997 10.961 77H53.2004C54.356 77 55.2961 76.0601 55.2961 74.9049L55.1666 68.7858H63.9142C64.5128 68.7858 64.9982 68.3006 64.9982 67.7018C64.9982 67.103 64.5128 66.6178 63.9142 66.6178C62.9237 66.6178 18.5202 66.6178 17.5563 66.6178C16.697 66.6178 16.2962 65.6146 17.0008 65.1183L44.3822 45.8333C44.6705 45.6303 44.8419 45.2997 44.8419 44.9471C44.8419 43.1426 44.8304 43.1399 44.8795 42.8583C45.0524 41.8675 45.8058 41.0482 46.7972 40.8313C48.19 40.5265 49.4298 39.7268 50.2672 38.5428C52.8773 34.8533 50.3718 29.6838 45.8739 29.4444C45.873 29.4444 45.8722 29.4444 45.8713 29.4444C43.1397 29.2989 40.7548 31.0171 40.0141 33.6167C40.0058 33.6454 39.9944 33.6724 39.983 33.6993C39.6714 34.431 38.6086 34.1762 38.6086 33.4209C38.6086 33.1473 38.9596 32.1596 39.4806 31.3352C39.9914 30.5267 40.6474 29.8397 41.4306 29.2937C41.4309 29.2936 41.4312 29.2933 41.4315 29.2931C41.4316 29.293 41.4319 29.293 41.432 29.2928C44.7016 27.0142 49.2977 27.8063 51.572 31.2586C54.3083 35.4112 52.1059 41.1203 47.1245 42.226C46.6516 42.3309 46.2744 42.7592 46.2744 43.2923C46.2744 44.7076 46.1466 45.2457 46.7343 45.6596L53.043 50.1029C53.0432 50.103 53.0435 50.103 53.0436 50.1032C76.0751 66.3245 74.7236 65.1994 74.7236 65.7619C74.7236 66.0927 74.4747 66.6178 73.8069 66.6178H68.6837C68.085 66.6178 67.5997 67.103 67.5997 67.7018C67.5997 68.3006 68.085 68.7858 68.6837 68.7858H73.8069C75.7376 68.7858 76.8916 67.2482 76.8916 65.7619C76.8916 64.7998 76.4249 63.9191 75.6109 63.3459ZM58.6319 28.0039V42.2585H53.5425C52.9358 42.2585 52.446 42.7574 52.4587 43.3655L52.5379 47.0954L48.4423 44.2108V44.1133C55.4714 41.8634 57.2033 32.7374 51.5414 28.0039H58.6319ZM30.6414 23.0618C30.9297 22.8588 31.1012 22.5282 31.1012 22.1756V20.4567C31.1012 19.2786 31.9232 18.2436 33.0562 17.9959C35.7896 17.3977 37.6907 14.9281 37.5767 12.1236C37.4573 9.1875 35.0663 6.76517 32.1334 6.60907C29.4226 6.46584 27.0141 8.18127 26.2731 10.7811C26.1647 11.1608 25.7671 11.3813 25.3879 11.2735C25.008 11.1652 24.7872 10.7682 24.8953 10.3885C25.8207 7.14253 28.8294 4.99958 32.2097 5.17866C35.8909 5.37464 38.8575 8.37639 39.0075 12.0652C39.1493 15.5549 36.7841 18.6354 33.3833 19.3903C32.8922 19.4994 32.5332 19.9343 32.5332 20.4567V22.0014C32.5332 22.3539 32.7047 22.6846 32.9929 22.8877L39.8114 27.6901C39.8082 27.7232 39.8046 27.756 39.8012 27.789C39.2514 28.2161 38.7488 28.7043 38.3056 29.2487L32.5647 25.2052C32.1902 24.9416 31.6907 24.9416 31.3162 25.2052L24.6217 29.9202C24.3305 29.2125 24.1436 28.455 24.0692 27.6901L30.6414 23.0618ZM25.7199 31.799L31.9407 27.4175L37.1422 31.0811C36.8386 31.7089 36.4407 32.7043 36.4407 33.425C35.1169 34.3462 33.5735 34.8314 31.9407 34.8314C29.4184 34.8314 27.1696 33.6432 25.7199 31.799Z" fill="black"/>
<path fill-rule="evenodd" clip-rule="evenodd" d="M46.014 31.413C45.0884 31.2594 44.3286 31.4643 43.8127 31.7312C42.0859 36.5095 37.5096 39.9246 32.1357 39.9246C25.4353 39.9246 19.9749 34.6155 19.7316 27.9746H17.7305C17.9747 35.7204 24.3306 41.9246 32.1357 41.9246C38.7436 41.9246 44.3129 37.4776 46.014 31.413Z" fill="#EC2C7D"/>
</svg>
