<svg width="80" height="80" viewBox="0 0 80 80" fill="none" xmlns="http://www.w3.org/2000/svg">
<path fill-rule="evenodd" clip-rule="evenodd" d="M77.0346 19.1518V19.1517L77.034 19.1414C77.0331 19.1091 77.0312 19.0773 77.0275 19.0458C77.0266 19.0386 77.0254 19.0314 77.0242 19.0242C77.0235 19.0198 77.0228 19.0154 77.0221 19.011C77.0178 18.982 77.0124 18.9533 77.0057 18.9252C77.0031 18.9141 77.0002 18.9031 76.9972 18.892C76.9888 18.8614 76.9793 18.8315 76.9683 18.802C76.9662 18.7963 76.965 18.7905 76.9628 18.785L74.0193 11.25C73.7226 10.4907 73.004 10 72.1887 10H66.8293C66.2451 10 65.7716 10.4735 65.7716 11.0577C65.7716 11.6419 66.2451 12.1155 66.8293 12.1155H72.0863L74.4288 18.1122H54.0446L54.274 20.2276H74.9199V67.6704C74.9199 68.4294 74.3023 69.047 73.5434 69.047H54.149C54.149 69.0407 54.1486 69.0343 54.1482 69.028C54.1479 69.0223 54.1475 69.0167 54.1474 69.011C54.1463 68.9161 54.1428 68.8213 54.1347 68.7273C55.9557 69.21 57.9015 68.2741 58.6312 66.4845C59.0151 65.5431 59.0094 64.5086 58.6152 63.5717C58.578 63.4834 58.5371 63.3978 58.4939 63.3135L58.4832 63.2923L58.4704 63.267C58.428 63.1866 58.3828 63.108 58.3352 63.0315C58.326 63.0166 58.3164 63.0021 58.307 62.9874C58.2567 62.9088 58.2044 62.8317 58.1487 62.7575L58.1456 62.7534C58.0903 62.6801 58.0318 62.6095 57.9715 62.5404C57.9605 62.5279 57.9497 62.5151 57.9385 62.5025C57.8788 62.436 57.8167 62.3716 57.7525 62.3095L57.7415 62.299L57.7144 62.2738C57.6472 62.2106 57.5783 62.1491 57.5065 62.0911L57.4991 62.0854C57.4285 62.0286 57.3552 61.9748 57.2804 61.923C57.2669 61.9136 57.2536 61.904 57.2399 61.8948C57.1651 61.8444 57.0884 61.7968 57.0097 61.7515C57.0066 61.7497 57.0036 61.7478 57.0006 61.7459C56.9974 61.7438 56.9941 61.7416 56.9906 61.7397C57.4377 61.3528 57.7905 60.8632 58.0203 60.2998C58.4041 59.3584 58.3985 58.324 58.0042 57.3869C57.6593 56.567 57.053 55.9076 56.2763 55.4985C56.1654 55.44 56.0509 55.3866 55.9333 55.3387L39.471 48.6262L47.1339 46.2544C48.957 45.69 49.9838 43.7455 49.4227 41.9201C49.2134 41.2387 48.7983 40.6641 48.2621 40.2441C47.4642 39.6189 46.3978 39.3366 45.3402 39.5587L45.3344 39.56L45.3252 39.5621L45.3242 39.5623C45.2185 39.586 39.367 40.901 33.2569 42.0924C32.9847 42.1455 32.7195 42.1968 32.4581 42.2471C32.2489 42.2873 32.0426 42.327 31.8402 42.3654L31.666 42.3986C31.3086 42.4664 30.9624 42.5314 30.6259 42.5939C30.4905 42.6191 30.3562 42.644 30.2241 42.6683C22.5191 44.0877 20.3546 44.1131 19.7539 44.0318L19.7472 44.0308L19.7208 44.0269L19.7034 44.024L19.6911 44.022C19.6536 44.0152 19.6244 44.0081 19.6018 44.0013L19.4285 43.9307L19.6445 43.401C19.8569 42.8802 19.8537 42.3079 19.6357 41.7895C19.5812 41.6599 19.5147 41.5375 19.4378 41.4235C19.2069 41.0816 18.8803 40.8154 18.4897 40.6561L12.8086 38.3397C12.2879 38.1271 11.7154 38.1305 11.197 38.3485C10.6785 38.5665 10.2761 38.9735 10.0638 39.4942L3.11681 56.5317C2.67844 57.6068 3.19653 58.838 4.27162 59.2765L9.95293 61.5931C10.2123 61.6989 10.4807 61.7489 10.745 61.7489C11.5759 61.7489 12.365 61.2538 12.6976 60.4383L12.7498 60.3103L14.0597 60.8443L14.062 60.8453C15.3149 61.3561 16.4693 62.085 17.4684 62.9895C17.6502 63.154 17.8267 63.3243 17.9978 63.5001C18.169 63.6759 18.3345 63.8573 18.4943 64.0439C18.5742 64.1372 18.6528 64.232 18.7296 64.3279C20.1855 66.1433 22.094 67.5674 24.2487 68.446L25.7224 69.0468H14.9278C14.1688 69.0468 13.5512 68.4292 13.5512 67.6702V64.9939C13.5512 64.4097 13.0777 63.9361 12.4934 63.9361C11.9092 63.9361 11.4357 64.4097 11.4357 64.9939V67.6702C11.4357 69.5957 13.0021 71.1623 14.9278 71.1623H30.9106L44.5364 76.7182C45.0055 76.9094 45.4907 77.0001 45.9686 77C47.4702 77 48.8964 76.1052 49.4975 74.6311C49.7441 74.0265 49.8232 73.3945 49.7568 72.787C50.4656 72.8887 51.2004 72.7954 51.8665 72.5078C52.5434 72.2154 53.1045 71.7497 53.5029 71.1622H73.5435C75.469 71.1622 77.0355 69.5957 77.0355 67.6701V19.1699L77.0353 19.1658C77.0353 19.1612 77.0349 19.1565 77.0346 19.1518ZM33.9496 20.2276H13.551V34.7095C13.551 35.2937 13.0775 35.7672 12.4933 35.7672C11.9091 35.7672 11.4356 35.2937 11.4356 34.7095V19.1697L11.4357 19.1658C11.4358 19.1617 11.4361 19.1576 11.4364 19.1535C11.4367 19.1494 11.4369 19.1454 11.437 19.1414C11.4379 19.1091 11.4399 19.0773 11.4435 19.0458C11.4444 19.0385 11.4456 19.0313 11.4468 19.024L11.4489 19.011C11.4532 18.9821 11.4586 18.9535 11.4652 18.9252C11.4678 18.9141 11.4707 18.9031 11.4738 18.892C11.4822 18.8613 11.4917 18.8313 11.5027 18.802C11.5031 18.8009 11.5035 18.7998 11.5039 18.7987C11.5045 18.797 11.505 18.7952 11.5055 18.7934C11.5058 18.7923 11.5062 18.7912 11.5065 18.7901C11.507 18.7884 11.5076 18.7867 11.5082 18.785L14.4516 11.2503C14.7484 10.4907 15.4668 10 16.2822 10H38.9066H49.5645H59.074C59.6582 10 60.1317 10.4735 60.1317 11.0577C60.1317 11.6419 59.6582 12.1155 59.074 12.1155H53.3946L53.3882 12.0564H34.8354L34.829 12.1155H16.3847L14.0422 18.1122H34.1789L33.9496 20.2276ZM10.7424 59.6304L5.07935 57.3214L12.0189 40.3024L17.682 42.6115L10.7424 59.6304ZM53.0003 66.0137L51.7863 65.5186L51.7846 65.5179L51.7833 65.5173L39.1401 60.3622C38.5993 60.1417 37.982 60.4013 37.7614 60.9424C37.5407 61.4833 37.8004 62.1006 38.3415 62.3213L50.9845 67.4764C51.0373 67.4979 51.0884 67.5218 51.1377 67.548C51.1454 67.5521 51.1528 67.5567 51.1602 67.5613L51.1604 67.5613C51.1662 67.565 51.1721 67.5686 51.1781 67.572L51.1807 67.5735C51.2145 67.5927 51.2485 67.6119 51.2805 67.6332C51.2898 67.6394 51.2986 67.6461 51.3074 67.6529C51.3136 67.6576 51.3198 67.6624 51.3261 67.6669L51.3405 67.6772C51.3649 67.6946 51.3894 67.712 51.4123 67.7309C51.4229 67.7395 51.4328 67.7488 51.4427 67.758C51.4485 67.7633 51.4542 67.7687 51.4601 67.7738L51.4782 67.7898L51.4783 67.7899C51.4969 67.8062 51.5155 67.8225 51.533 67.84C51.543 67.8499 51.5523 67.8604 51.5616 67.8709C51.5654 67.8752 51.5693 67.8795 51.5731 67.8838C51.575 67.8858 51.5768 67.8879 51.5787 67.8899L51.5932 67.9053C51.6019 67.9145 51.6105 67.9238 51.6191 67.9332C51.6268 67.9417 51.6344 67.9503 51.6418 67.9592C51.6514 67.9708 51.6602 67.9828 51.6691 67.9949L51.6691 67.995L51.6693 67.9952C51.6744 68.0021 51.6795 68.0091 51.6847 68.016L51.7014 68.0376C51.7141 68.054 51.7267 68.0705 51.7383 68.0876C51.7474 68.1011 51.7558 68.115 51.764 68.1289L51.7773 68.1509C51.7816 68.1577 51.7859 68.1645 51.7902 68.1714C51.8012 68.1887 51.8122 68.2061 51.822 68.2241C51.8345 68.2466 51.8449 68.2702 51.8563 68.2932C51.8685 68.318 51.8816 68.3423 51.8926 68.3676C51.9 68.3845 51.9064 68.4018 51.9127 68.4192L51.9211 68.4418C51.9307 68.4668 51.9411 68.4914 51.9495 68.5169C51.9562 68.5375 51.9617 68.5584 51.9672 68.5793C51.9686 68.5844 51.97 68.5895 51.9713 68.5946C51.9784 68.6202 51.9864 68.6454 51.9923 68.6713C51.9964 68.689 51.9994 68.707 52.0024 68.725L52.0068 68.7504L52.0107 68.7714C52.0144 68.7907 52.018 68.8099 52.0205 68.8294C52.023 68.8484 52.0244 68.8676 52.0258 68.8867C52.0263 68.8944 52.0269 68.902 52.0275 68.9097L52.0297 68.9343C52.0314 68.953 52.0331 68.9716 52.0337 68.9903C52.0342 69.0053 52.034 69.0205 52.0337 69.0357C52.0334 69.0472 52.0331 69.0587 52.033 69.0701C52.0327 69.0976 52.0331 69.1251 52.0314 69.1527C52.0303 69.1709 52.0281 69.1891 52.0258 69.2073L52.023 69.2313L52.0209 69.2514C52.0187 69.2729 52.0165 69.2944 52.013 69.3158C52.0102 69.3329 52.0064 69.3499 52.0026 69.367L51.997 69.3929C51.9909 69.4214 51.9858 69.4499 51.9781 69.4783C51.9735 69.4958 51.9677 69.5132 51.9619 69.5306L51.9546 69.5531C51.9525 69.5595 51.9505 69.566 51.9485 69.5724C51.9417 69.5943 51.9349 69.6161 51.9268 69.6377C51.9178 69.6569 51.909 69.6763 51.9007 69.6959C51.8989 69.7003 51.8979 69.705 51.8961 69.7093C51.7309 70.0908 51.4259 70.3939 51.0276 70.5659C50.5892 70.755 50.0874 70.7617 49.6504 70.5835L47.4104 69.6701C47.4024 69.6669 47.3943 69.6644 47.3863 69.6617C47.3839 69.6609 47.3814 69.66 47.379 69.6591L47.3666 69.6532C47.3604 69.6501 47.3542 69.6471 47.3478 69.6445L37.0647 65.4516C36.5235 65.2311 35.9065 65.4907 35.686 66.0318C35.4653 66.5727 35.725 67.1901 36.266 67.4107L46.549 71.6036C46.56 71.6081 46.5711 71.6112 46.5823 71.6153C46.5923 71.6196 46.6015 71.625 46.6118 71.629C47.4748 71.981 47.8907 72.9695 47.5389 73.8325C47.1869 74.6957 46.1989 75.1118 45.3355 74.7595L31.5196 69.1261L31.5178 69.1253L25.0479 66.4871C23.909 66.0227 22.8514 65.3781 21.9178 64.5852C21.3576 64.1093 20.8422 63.5802 20.3803 63.0044C19.9253 62.4371 19.4262 61.9081 18.8892 61.4218C17.7076 60.3522 16.3426 59.4904 14.8612 58.8862L13.5492 58.3513L16.1616 51.9443L18.6303 45.8898L18.8125 45.964C18.9839 46.0339 19.2284 46.1331 19.8864 46.158C20.7085 46.1952 22.0684 46.1094 24.5048 45.7652C26.1621 45.5311 28.1949 45.1926 30.568 44.7559L30.7435 44.7237L31.0792 44.6615C31.1667 44.6453 31.2547 44.6288 31.3434 44.6121L31.6479 44.555C31.7563 44.5346 31.8659 44.5139 31.9762 44.4929L32.2417 44.4426C32.3761 44.417 32.5128 44.3908 32.6499 44.3644L32.8616 44.3239C33.0717 44.2834 33.2845 44.2423 33.5012 44.2002C39.6154 43.011 45.5167 41.6873 45.7819 41.6277C45.8084 41.6222 45.8349 41.6191 45.8614 41.6152C46.5408 41.5146 47.2064 41.9075 47.4013 42.5415C47.4697 42.7643 47.4777 42.9916 47.4346 43.2054C47.3398 43.6761 46.9978 44.0822 46.5089 44.2334L36.0225 47.479C35.5955 47.6113 35.2978 47.9971 35.2786 48.4436C35.2592 48.8899 35.5222 49.3004 35.936 49.4691L55.1351 57.2977C55.5532 57.4681 55.8799 57.7911 56.055 58.2074C56.23 58.6236 56.2327 59.0831 56.0621 59.5011C55.8915 59.9192 55.5686 60.2459 55.1523 60.4209C54.9443 60.5083 54.7254 60.5526 54.5062 60.5539L54.5033 60.5538C54.5011 60.5537 54.4989 60.5535 54.4967 60.5535C54.4452 60.5535 54.3938 60.5514 54.3425 60.5467C54.3342 60.5459 54.3259 60.5446 54.3177 60.5433C54.3136 60.5426 54.3095 60.542 54.3054 60.5414C54.3026 60.541 54.2998 60.5406 54.297 60.5403L54.2868 60.539C54.251 60.5347 54.2152 60.5304 54.1797 60.5235C54.1642 60.5205 54.1488 60.5165 54.1334 60.5125C54.1244 60.5102 54.1154 60.5079 54.1063 60.5057C54.0982 60.5038 54.09 60.5019 54.0818 60.5001C54.0607 60.4953 54.0397 60.4905 54.0188 60.4843C53.9973 60.478 53.976 60.4701 53.9548 60.4623C53.9465 60.4592 53.9383 60.4562 53.93 60.4532C53.9065 60.4448 53.8827 60.4379 53.8595 60.4285L41.2154 55.2728C40.6744 55.0521 40.0572 55.3118 39.8366 55.8529C39.616 56.3939 39.8757 57.0112 40.4168 57.2318L55.746 63.4823C55.8506 63.5248 55.9494 63.5771 56.0415 63.6378C56.318 63.8201 56.5346 64.0798 56.6658 64.392C56.819 64.7562 56.8401 65.1535 56.7287 65.5272C56.7128 65.5805 56.6942 65.6335 56.6729 65.6857C56.6509 65.7397 56.6265 65.7919 56.5997 65.8423C56.5373 65.9594 56.4614 66.0653 56.3766 66.1618C56.3239 66.2217 56.2677 66.2776 56.2078 66.3288C56.2035 66.3325 56.1993 66.3363 56.1952 66.3402L56.1951 66.3403C56.1901 66.345 56.1851 66.3497 56.1798 66.354C55.7938 66.6697 55.2778 66.8054 54.7736 66.7035C54.6713 66.6828 54.5696 66.6535 54.4695 66.6127L53.0003 66.0137Z" fill="black"/>
<path d="M37 19.1569L39 11H49L51 19.1569V37L44 30.8824L37 36.4902V19.1569Z" stroke="#EC2C7D" stroke-width="2" stroke-linejoin="round"/>
</svg>
