<svg width="16" height="20" viewBox="0 0 16 20" fill="none" xmlns="http://www.w3.org/2000/svg">
<path fill-rule="evenodd" clip-rule="evenodd" d="M7.92443 19C8.23045 19 8.54172 18.98 8.84917 18.9409C12.0262 18.5376 14.593 15.9326 14.9529 12.747C15.1836 10.704 14.5611 8.74016 13.2002 7.21673C11.8565 5.71283 9.93359 4.85006 7.92443 4.85006C7.62556 4.85006 7.3224 4.86913 7.02496 4.90726C6.84668 4.92966 6.74372 5.03882 6.69891 5.10222C6.65363 5.16514 6.58356 5.29718 6.61979 5.47688C6.66173 5.68709 6.88243 5.85154 7.12172 5.85154C7.14222 5.85154 7.16224 5.85011 7.18273 5.84773C7.4287 5.81865 7.67752 5.8034 7.92443 5.8034C9.74722 5.8034 11.4637 6.6104 12.6325 8.0161C13.7999 9.41989 14.2756 11.267 13.9386 13.0836C13.4838 15.5327 11.5328 17.4837 9.08417 17.9389C8.6995 18.0104 8.30958 18.0467 7.92491 18.0467C4.56439 18.0462 1.81877 15.3125 1.80447 11.952V1.47762C1.80447 1.21402 1.59045 1 1.32732 1C1.06373 1 0.849702 1.21402 0.849702 1.47762V11.9253C0.849702 13.1074 1.14953 14.2791 1.71724 15.3134C2.96421 17.5872 5.34231 19 7.92443 19C7.92443 19 7.92396 19 7.92443 19Z" fill="#C9C9C9"/>
<path d="M7.92443 19C8.23045 19 8.54172 18.98 8.84917 18.9409C12.0262 18.5376 14.593 15.9326 14.9529 12.747C15.1836 10.704 14.5611 8.74016 13.2002 7.21673C11.8565 5.71283 9.93359 4.85006 7.92443 4.85006C7.62556 4.85006 7.3224 4.86913 7.02496 4.90726C6.84668 4.92966 6.74372 5.03882 6.69891 5.10222C6.65363 5.16514 6.58356 5.29718 6.61979 5.47688C6.66173 5.68709 6.88243 5.85154 7.12172 5.85154C7.14222 5.85154 7.16224 5.85011 7.18273 5.84773C7.4287 5.81865 7.67752 5.8034 7.92443 5.8034C9.74722 5.8034 11.4637 6.6104 12.6325 8.0161C13.7999 9.41989 14.2756 11.267 13.9386 13.0836C13.4838 15.5327 11.5328 17.4837 9.08417 17.9389C8.6995 18.0104 8.30958 18.0467 7.92491 18.0467C4.56439 18.0462 1.81877 15.3125 1.80447 11.952V1.47762C1.80447 1.21402 1.59045 1 1.32732 1C1.06373 1 0.849702 1.21402 0.849702 1.47762V11.9253C0.849702 13.1074 1.14953 14.2791 1.71724 15.3134C2.96421 17.5872 5.34231 19 7.92443 19C7.92443 19 7.92396 19 7.92443 19" stroke="#C9C9C9"/>
</svg>
