<svg
    width="16"
    height="16"
    viewBox="0 0 16 16"
    fill="none"
    xmlns="http://www.w3.org/2000/svg"
>
    <path
        d="M9.43845 8.10363C9.13489 7.87595 8.75626 7.7287 8.34786 7.67507V5.77067C8.9402 5.88001 9.39132 6.25926 9.39132 6.69554C9.39132 6.88764 9.54707 7.04335 9.73914 7.04335C9.9312 7.04335 10.0869 6.88764 10.0869 6.69554C10.0869 6.23498 9.85667 5.80864 9.43842 5.49495C9.13486 5.26726 8.75623 5.12005 8.34783 5.06639V4.52164C8.34783 4.32955 8.19208 4.17383 8.00002 4.17383C7.80795 4.17383 7.6522 4.32955 7.6522 4.52164V5.06645C7.2438 5.12008 6.86514 5.26733 6.56161 5.49501C6.1434 5.80864 5.91309 6.23501 5.91309 6.69557C5.91309 7.15613 6.14337 7.58248 6.56161 7.89616C6.86518 8.12385 7.2438 8.2711 7.6522 8.32473V10.2291C7.05986 10.1198 6.60874 9.74057 6.60874 9.30429C6.60874 9.11219 6.45299 8.95648 6.26093 8.95648C6.06887 8.95648 5.91312 9.11219 5.91312 9.30429C5.91312 9.76485 6.1434 10.1912 6.56165 10.5049C6.86521 10.7326 7.24383 10.8798 7.65224 10.9334V11.4782C7.65224 11.6703 7.80799 11.826 8.00005 11.826C8.19211 11.826 8.34786 11.6703 8.34786 11.4782V10.9333C8.75626 10.8797 9.13492 10.7325 9.43845 10.5048C9.85667 10.1912 10.087 9.76479 10.087 9.30422C10.087 8.84366 9.85667 8.41732 9.43845 8.10363ZM7.6522 7.62038C7.05986 7.51107 6.60874 7.13182 6.60874 6.69554C6.60874 6.25926 7.05986 5.88004 7.6522 5.7707V7.62038ZM8.34783 10.2291V8.37941C8.94017 8.48873 9.39129 8.86798 9.39129 9.30426C9.39129 9.74054 8.9402 10.1198 8.34783 10.2291Z"
        fill="black"
    />
    <path
        d="M13.6569 2.34316C12.1458 0.832125 10.1369 0 8 0C5.86309 0 3.85416 0.832125 2.34313 2.34316C0.832125 3.85416 0 5.86312 0 8C0 10.1369 0.832125 12.1458 2.34313 13.6568C3.85416 15.1679 5.86309 16 8 16C10.1369 16 12.1458 15.1679 13.6569 13.6568C15.1679 12.1458 16 10.1369 16 8C16 5.86312 15.1679 3.85416 13.6569 2.34316ZM8 15.3043C3.97237 15.3043 0.695656 12.0276 0.695656 8C0.695656 3.97237 3.97237 0.695656 8 0.695656C12.0276 0.695656 15.3043 3.97237 15.3043 8C15.3043 12.0276 12.0276 15.3043 8 15.3043Z"
        fill="black"
    />
    <path
        d="M12.6159 4.30398C12.4957 4.15404 12.2767 4.13004 12.1269 4.25016C11.977 4.37035 11.9529 4.58923 12.073 4.7391C12.8217 5.67288 13.2174 6.80045 13.2174 7.99995C13.2174 10.8768 10.8768 13.2174 7.99995 13.2174C5.12307 13.2174 2.78257 10.8768 2.78257 7.99995C2.78257 5.12307 5.12307 2.78257 7.99995 2.78257C8.9042 2.78257 9.79495 3.01741 10.576 3.46173C10.7429 3.5567 10.9553 3.49838 11.0503 3.33138C11.1453 3.16441 11.0869 2.95204 10.9199 2.85704C10.0343 2.35323 9.02457 2.08691 7.99995 2.08691C4.73951 2.08691 2.08691 4.73951 2.08691 7.99995C2.08691 11.2604 4.73951 13.913 7.99995 13.913C11.2604 13.913 13.913 11.2604 13.913 7.99995C13.913 6.66001 13.4523 5.34741 12.6159 4.30398Z"
        fill="black"
    />
    <path
        d="M11.9438 3.69433C11.9393 3.67208 11.9327 3.65051 11.924 3.62929C11.9153 3.60842 11.9045 3.58826 11.892 3.56948C11.8792 3.55036 11.8645 3.53261 11.8485 3.51661C11.8325 3.50026 11.8148 3.48601 11.7957 3.47314C11.7769 3.46061 11.7567 3.44982 11.7359 3.44114C11.7146 3.43245 11.6927 3.42582 11.6708 3.42132C11.6259 3.41229 11.5797 3.41229 11.5348 3.42132C11.5126 3.42586 11.4906 3.43245 11.4698 3.44114C11.4486 3.44982 11.4284 3.46061 11.4097 3.47314C11.3905 3.48601 11.3728 3.50026 11.3568 3.51661C11.3408 3.53261 11.3262 3.55036 11.3136 3.56948C11.3011 3.58826 11.2903 3.60845 11.2816 3.62929C11.2729 3.65051 11.2664 3.67208 11.2619 3.69433C11.2573 3.71692 11.2549 3.73989 11.2549 3.76251C11.2549 3.78511 11.2573 3.80808 11.2619 3.83033C11.2664 3.85258 11.2729 3.87452 11.2816 3.89536C11.2903 3.91658 11.3011 3.93677 11.3136 3.95555C11.3262 3.97467 11.3408 3.99242 11.3568 4.00842C11.3728 4.02442 11.3905 4.03902 11.4097 4.05155C11.4284 4.06408 11.4486 4.07486 11.4698 4.08355C11.4907 4.09224 11.5126 4.09886 11.5348 4.10336C11.5571 4.10789 11.58 4.11033 11.6026 4.11033C11.6252 4.11033 11.6482 4.10789 11.6708 4.10336C11.6927 4.09883 11.7146 4.09224 11.7359 4.08355C11.7567 4.07486 11.7769 4.06408 11.7957 4.05155C11.8148 4.03902 11.8325 4.02442 11.8485 4.00842C11.8645 3.99242 11.8792 3.97467 11.892 3.95555C11.9045 3.93677 11.9153 3.91658 11.924 3.89536C11.9327 3.87448 11.9393 3.85258 11.9438 3.83033C11.9483 3.80808 11.9504 3.78511 11.9504 3.76251C11.9504 3.73989 11.9483 3.71695 11.9438 3.69433Z"
        fill="black"
    />
</svg>