<svg width="18" height="20" viewBox="0 0 18 20" fill="none" xmlns="http://www.w3.org/2000/svg">
<path d="M2.36781 7.47995C2.36662 6.62603 2.53445 5.78033 2.86162 4.99158C3.1888 4.20283 3.66886 3.48664 4.27411 2.88429C4.87937 2.28194 5.59787 1.80533 6.38818 1.48196C7.17849 1.15858 8.025 0.994823 8.87889 1.00012C12.442 1.02661 15.292 3.98824 15.292 7.56129V8.19995C15.292 11.4234 15.9664 13.2938 16.5603 14.3162C16.6243 14.4254 16.6584 14.5496 16.6591 14.6762C16.6597 14.8028 16.627 14.9273 16.5642 15.0372C16.5014 15.1472 16.4107 15.2386 16.3013 15.3022C16.1919 15.3659 16.0676 15.3996 15.941 15.3999H1.71806C1.59145 15.3996 1.46717 15.3659 1.35774 15.3022C1.24832 15.2385 1.15763 15.1471 1.09482 15.0372C1.03202 14.9272 0.999312 14.8027 1.00001 14.6761C1.00071 14.5494 1.03479 14.4253 1.09881 14.316C1.6931 13.2937 2.36781 11.4232 2.36781 8.19995L2.36781 7.47995Z" stroke="#C9C9C9" stroke-width="1.3" stroke-linecap="round" stroke-linejoin="round"/>
<path d="M5.94922 15.4004V16.1204C5.94922 16.8842 6.25265 17.6168 6.79275 18.1569C7.33286 18.697 8.0654 19.0004 8.82922 19.0004C9.59304 19.0004 10.3256 18.697 10.8657 18.1569C11.4058 17.6168 11.7092 16.8842 11.7092 16.1204V15.4004" stroke="#C9C9C9" stroke-width="1.3" stroke-linecap="round" stroke-linejoin="round"/>
</svg>
