<svg width="24" height="24" viewBox="0 0 24 24" fill="none" xmlns="http://www.w3.org/2000/svg">
<path d="M21.287 23.0794L0.925492 2.82724C0.4146 2.31909 0.40034 1.47959 0.89366 0.953343C1.38698 0.427096 2.20199 0.412407 2.71288 0.920555L23.0744 21.1728C23.5853 21.6809 23.5996 22.5204 23.1063 23.0467C22.6129 23.5729 21.7979 23.5876 21.287 23.0794Z" fill="black"/>
<path d="M2.71295 23.0794L23.0745 2.82724C23.5854 2.31909 23.5997 1.47959 23.1063 0.953343C22.613 0.427096 21.798 0.412407 21.2871 0.920555L0.92556 21.1728C0.414669 21.6809 0.400408 22.5204 0.893729 23.0467C1.38705 23.5729 2.20206 23.5876 2.71295 23.0794Z" fill="black"/>
</svg>
