<svg width="29" height="23" viewBox="0 0 29 23" fill="none" xmlns="http://www.w3.org/2000/svg">
<path opacity="0.2" d="M6.79453 22.9C4.72786 22.9 3.12786 22.2 1.99453 20.8C0.927864 19.3333 0.394531 17.3333 0.394531 14.8C0.394531 11.6667 1.1612 8.99999 2.69453 6.79999C4.29453 4.53332 6.8612 2.36666 10.3945 0.299988L12.1945 2.89999C10.3279 4.03332 8.89453 5.23332 7.89453 6.49999C6.89453 7.76666 6.39453 9.09999 6.39453 10.5C6.39453 11.3 6.49453 12.0333 6.69453 12.7C6.89453 13.3667 7.5612 14.1667 8.69453 15.1C9.29453 15.5667 9.79453 16.1333 10.1945 16.8C10.6612 17.4667 10.8945 18.1667 10.8945 18.9C10.8945 20.1 10.5279 21.0667 9.79453 21.8C9.0612 22.5333 8.0612 22.9 6.79453 22.9ZM23.4945 22.9C21.4279 22.9 19.8279 22.2 18.6945 20.8C17.6279 19.3333 17.0945 17.3333 17.0945 14.8C17.0945 11.6667 17.8612 8.99999 19.3945 6.79999C20.9945 4.53332 23.5612 2.36666 27.0945 0.299988L28.8945 2.89999C27.0279 4.03332 25.5945 5.23332 24.5945 6.49999C23.5945 7.76666 23.0945 9.09999 23.0945 10.5C23.0945 11.3 23.1945 12.0333 23.3945 12.7C23.5945 13.3667 24.2612 14.1667 25.3945 15.1C25.9945 15.5667 26.4945 16.1333 26.8945 16.8C27.3612 17.4667 27.5945 18.1667 27.5945 18.9C27.5945 20.1 27.2279 21.0667 26.4945 21.8C25.7612 22.5333 24.7612 22.9 23.4945 22.9Z" fill="url(#paint0_linear)"/>
<defs>
<linearGradient id="paint0_linear" x1="-2.87912" y1="11.3694" x2="31.0128" y2="11.3694" gradientUnits="userSpaceOnUse">
<stop stop-color="#FB8E8C"/>
<stop offset="1" stop-color="#E812A4"/>
</linearGradient>
</defs>
</svg>
