<svg width="29" height="23" viewBox="0 0 29 23" fill="none" xmlns="http://www.w3.org/2000/svg">
<path opacity="0.2" d="M22.2074 22.9C24.2741 22.9 25.8741 22.2 27.0074 20.8C28.0741 19.3333 28.6074 17.3333 28.6074 14.8C28.6074 11.6667 27.8408 8.99999 26.3074 6.79999C24.7074 4.53332 22.1408 2.36666 18.6074 0.299988L16.8074 2.89999C18.6741 4.03332 20.1074 5.23332 21.1074 6.49999C22.1074 7.76666 22.6074 9.09999 22.6074 10.5C22.6074 11.3 22.5074 12.0333 22.3074 12.7C22.1074 13.3667 21.4408 14.1667 20.3074 15.1C19.7074 15.5667 19.2074 16.1333 18.8074 16.8C18.3408 17.4667 18.1074 18.1667 18.1074 18.9C18.1074 20.1 18.4741 21.0667 19.2074 21.8C19.9408 22.5333 20.9408 22.9 22.2074 22.9ZM5.50742 22.9C7.57409 22.9 9.17409 22.2 10.3074 20.8C11.3741 19.3333 11.9074 17.3333 11.9074 14.8C11.9074 11.6667 11.1408 8.99999 9.60742 6.79999C8.00742 4.53332 5.44076 2.36666 1.90742 0.299988L0.107422 2.89999C1.97409 4.03332 3.40742 5.23332 4.40742 6.49999C5.40742 7.76666 5.90742 9.09999 5.90742 10.5C5.90742 11.3 5.80742 12.0333 5.60742 12.7C5.40742 13.3667 4.74076 14.1667 3.60742 15.1C3.00742 15.5667 2.50742 16.1333 2.10742 16.8C1.64076 17.4667 1.40742 18.1667 1.40742 18.9C1.40742 20.1 1.77409 21.0667 2.50742 21.8C3.24076 22.5333 4.24076 22.9 5.50742 22.9Z" fill="url(#paint0_linear)"/>
<defs>
<linearGradient id="paint0_linear" x1="-3.16623" y1="11.3694" x2="30.7257" y2="11.3694" gradientUnits="userSpaceOnUse">
<stop stop-color="#FB8E8C"/>
<stop offset="1" stop-color="#E812A4"/>
</linearGradient>
</defs>
</svg>
