<svg width="249" height="185" viewBox="0 0 249 185" fill="none" xmlns="http://www.w3.org/2000/svg">
<path d="M14.3773 50.12C13.8013 50.12 13.2853 49.98 12.8293 49.7C12.3813 49.42 12.0253 49.036 11.7613 48.548C11.5053 48.052 11.3773 47.488 11.3773 46.856C11.3773 46.232 11.5093 45.676 11.7733 45.188C12.0373 44.692 12.3933 44.304 12.8413 44.024C13.2893 43.736 13.7933 43.592 14.3533 43.592C14.8333 43.592 15.2733 43.704 15.6733 43.928C16.0813 44.144 16.3973 44.412 16.6213 44.732V42.8H15.2293V41.984H16.6213V41.12H17.5333V41.984H18.4453V42.8H17.5333V50H16.6333L16.6093 48.944C16.4093 49.272 16.1053 49.552 15.6973 49.784C15.2893 50.008 14.8493 50.12 14.3773 50.12ZM14.4973 49.28C14.9133 49.28 15.2853 49.176 15.6133 48.968C15.9413 48.76 16.1973 48.476 16.3813 48.116C16.5733 47.748 16.6693 47.328 16.6693 46.856C16.6693 46.384 16.5733 45.968 16.3813 45.608C16.1973 45.24 15.9413 44.952 15.6133 44.744C15.2853 44.536 14.9133 44.432 14.4973 44.432C14.0733 44.432 13.6973 44.536 13.3693 44.744C13.0413 44.952 12.7853 45.24 12.6013 45.608C12.4173 45.968 12.3253 46.384 12.3253 46.856C12.3253 47.32 12.4173 47.736 12.6013 48.104C12.7853 48.472 13.0413 48.76 13.3693 48.968C13.6973 49.176 14.0733 49.28 14.4973 49.28ZM22.0582 50.12C21.4262 50.12 20.8662 49.984 20.3782 49.712C19.8982 49.44 19.5222 49.06 19.2502 48.572C18.9782 48.084 18.8422 47.524 18.8422 46.892C18.8422 46.252 18.9742 45.684 19.2382 45.188C19.5022 44.692 19.8702 44.304 20.3422 44.024C20.8142 43.736 21.3542 43.592 21.9622 43.592C22.5222 43.592 23.0142 43.724 23.4382 43.988C23.8702 44.244 24.2022 44.6 24.4342 45.056C24.6662 45.504 24.7742 46.024 24.7582 46.616L24.7462 47.036H19.7782C19.8182 47.716 20.0502 48.256 20.4742 48.656C20.8982 49.056 21.4622 49.256 22.1662 49.256C22.4702 49.256 22.7662 49.208 23.0542 49.112C23.3502 49.008 23.6742 48.808 24.0262 48.512L24.4942 49.172C24.2142 49.444 23.8582 49.672 23.4262 49.856C22.9942 50.032 22.5382 50.12 22.0582 50.12ZM21.9502 44.456C21.3742 44.456 20.8982 44.612 20.5222 44.924C20.1462 45.228 19.9102 45.676 19.8142 46.268H23.8342V46.196C23.8182 45.908 23.7342 45.632 23.5822 45.368C23.4302 45.096 23.2142 44.876 22.9342 44.708C22.6622 44.54 22.3342 44.456 21.9502 44.456ZM23.8462 41.192L23.3542 40.856L24.2542 39.2L25.1062 39.788L23.8462 41.192ZM20.5702 42.728L20.1742 42.38L21.5182 41.096H22.4062L23.7502 42.38L23.3542 42.728L21.9622 41.828L20.5702 42.728ZM26.0479 50V43.724H26.9479L26.9719 44.792C27.1639 44.456 27.4599 44.172 27.8599 43.94C28.2679 43.708 28.6959 43.592 29.1439 43.592C29.8399 43.592 30.3639 43.808 30.7159 44.24C31.0759 44.664 31.2559 45.312 31.2559 46.184V50H30.3319V46.244C30.3319 45.02 29.8399 44.42 28.8559 44.444C28.4879 44.444 28.1599 44.524 27.8719 44.684C27.5919 44.844 27.3679 45.056 27.1999 45.32C27.0399 45.584 26.9599 45.872 26.9599 46.184V50H26.0479ZM38.2929 50L35.6409 43.724H36.6609L38.6409 48.632L40.7769 43.724H41.7489L38.9409 50H38.2929ZM45.4019 50.12C44.7859 50.12 44.2339 49.98 43.7459 49.7C43.2659 49.412 42.8859 49.024 42.6059 48.536C42.3259 48.04 42.1859 47.476 42.1859 46.844C42.1859 46.22 42.3259 45.664 42.6059 45.176C42.8859 44.68 43.2659 44.292 43.7459 44.012C44.2339 43.732 44.7859 43.592 45.4019 43.592C45.5619 43.592 45.7099 43.604 45.8459 43.628C45.9899 43.652 46.1219 43.676 46.2419 43.7C46.3939 43.732 46.5379 43.748 46.6739 43.748C47.3539 43.748 47.6939 43.304 47.6939 42.416H48.4739C48.4739 42.872 48.3819 43.26 48.1979 43.58C48.0139 43.9 47.7379 44.12 47.3699 44.24C47.7539 44.528 48.0539 44.896 48.2699 45.344C48.4939 45.792 48.6059 46.292 48.6059 46.844C48.6059 47.476 48.4659 48.04 48.1859 48.536C47.9139 49.024 47.5339 49.412 47.0459 49.7C46.5659 49.98 46.0179 50.12 45.4019 50.12ZM45.4019 49.256C45.8419 49.256 46.2299 49.152 46.5659 48.944C46.9099 48.736 47.1779 48.452 47.3699 48.092C47.5619 47.724 47.6579 47.308 47.6579 46.844C47.6579 46.38 47.5619 45.972 47.3699 45.62C47.1779 45.26 46.9099 44.976 46.5659 44.768C46.2299 44.56 45.8419 44.456 45.4019 44.456C44.9619 44.456 44.5699 44.56 44.2259 44.768C43.8819 44.976 43.6139 45.26 43.4219 45.62C43.2299 45.98 43.1339 46.388 43.1339 46.844C43.1339 47.308 43.2299 47.724 43.4219 48.092C43.6139 48.452 43.8819 48.736 44.2259 48.944C44.5699 49.152 44.9619 49.256 45.4019 49.256ZM44.6459 42.8L44.3219 42.308L46.0259 40.868L46.6139 41.624L44.6459 42.8ZM50.495 42.38C50.271 42.38 50.099 42.324 49.979 42.212C49.859 42.092 49.799 41.928 49.799 41.72C49.799 41.52 49.859 41.36 49.979 41.24C50.099 41.12 50.271 41.06 50.495 41.06C50.711 41.06 50.879 41.12 50.999 41.24C51.119 41.352 51.179 41.512 51.179 41.72C51.179 41.92 51.119 42.08 50.999 42.2C50.879 42.32 50.711 42.38 50.495 42.38ZM50.039 50V43.724H50.963V50H50.039ZM56.1533 50V43.724H57.0533L57.0773 44.792C57.2693 44.456 57.5653 44.172 57.9653 43.94C58.3733 43.708 58.8013 43.592 59.2493 43.592C59.9453 43.592 60.4693 43.808 60.8213 44.24C61.1813 44.664 61.3613 45.312 61.3613 46.184V50H60.4373V46.244C60.4373 45.02 59.9453 44.42 58.9613 44.444C58.5933 44.444 58.2653 44.524 57.9773 44.684C57.6973 44.844 57.4733 45.056 57.3053 45.32C57.1453 45.584 57.0653 45.872 57.0653 46.184V50H56.1533ZM65.8511 50.12C65.2191 50.12 64.6591 49.984 64.1711 49.712C63.6911 49.44 63.3151 49.06 63.0431 48.572C62.7711 48.084 62.6351 47.524 62.6351 46.892C62.6351 46.252 62.7671 45.684 63.0311 45.188C63.2951 44.692 63.6631 44.304 64.1351 44.024C64.6071 43.736 65.1471 43.592 65.7551 43.592C66.3151 43.592 66.8071 43.724 67.2311 43.988C67.6631 44.244 67.9951 44.6 68.2271 45.056C68.4591 45.504 68.5671 46.024 68.5511 46.616L68.5391 47.036H63.5711C63.6111 47.716 63.8431 48.256 64.2671 48.656C64.6911 49.056 65.2551 49.256 65.9591 49.256C66.2631 49.256 66.5591 49.208 66.8471 49.112C67.1431 49.008 67.4671 48.808 67.8191 48.512L68.2871 49.172C68.0071 49.444 67.6511 49.672 67.2191 49.856C66.7871 50.032 66.3311 50.12 65.8511 50.12ZM65.7431 44.456C65.1671 44.456 64.6911 44.612 64.3151 44.924C63.9391 45.228 63.7031 45.676 63.6071 46.268H67.6271V46.196C67.6111 45.908 67.5271 45.632 67.3751 45.368C67.2231 45.096 67.0071 44.876 66.7271 44.708C66.4551 44.54 66.1271 44.456 65.7431 44.456ZM67.4471 41.204L66.1631 39.788L67.0151 39.2L67.9151 40.856L67.4471 41.204ZM64.3631 42.728L63.9671 42.38L65.3111 41.096H66.1991L67.5431 42.38L67.1471 42.728L65.7551 41.828L64.3631 42.728ZM69.8408 50V43.724H70.7408L70.7648 44.792C70.9568 44.456 71.2528 44.172 71.6528 43.94C72.0608 43.708 72.4888 43.592 72.9368 43.592C73.6328 43.592 74.1568 43.808 74.5088 44.24C74.8688 44.664 75.0488 45.312 75.0488 46.184V50H74.1248V46.244C74.1248 45.02 73.6328 44.42 72.6488 44.444C72.2808 44.444 71.9528 44.524 71.6648 44.684C71.3848 44.844 71.1608 45.056 70.9928 45.32C70.8328 45.584 70.7528 45.872 70.7528 46.184V50H69.8408ZM80.9939 50V44.6H79.5899V43.724H80.9939V42.092H81.9059V43.724H83.4779V44.6H81.9059V50H80.9939ZM86.9842 50.12C86.4402 50.12 85.9482 49.98 85.5082 49.7C85.0682 49.412 84.7202 49.024 84.4642 48.536C84.2082 48.04 84.0802 47.48 84.0802 46.856C84.0802 46.224 84.2122 45.664 84.4762 45.176C84.7402 44.68 85.0962 44.292 85.5442 44.012C85.9922 43.732 86.4922 43.592 87.0442 43.592C87.5482 43.592 87.9962 43.708 88.3882 43.94C88.7882 44.172 89.0922 44.472 89.3002 44.84L89.3242 43.724H90.2362V50H89.3122V48.884C89.0882 49.236 88.7682 49.532 88.3522 49.772C87.9362 50.004 87.4802 50.12 86.9842 50.12ZM87.1882 49.244C87.6042 49.244 87.9762 49.144 88.3042 48.944C88.6322 48.736 88.8882 48.452 89.0722 48.092C89.2642 47.732 89.3602 47.316 89.3602 46.844C89.3602 46.388 89.2642 45.98 89.0722 45.62C88.8882 45.26 88.6322 44.98 88.3042 44.78C87.9762 44.572 87.6042 44.468 87.1882 44.468C86.7642 44.468 86.3882 44.572 86.0602 44.78C85.7402 44.98 85.4882 45.26 85.3042 45.62C85.1202 45.98 85.0282 46.388 85.0282 46.844C85.0282 47.308 85.1202 47.724 85.3042 48.092C85.4882 48.452 85.7402 48.736 86.0602 48.944C86.3882 49.144 86.7642 49.244 87.1882 49.244ZM87.1882 42.836C87.1002 42.708 87.0562 42.58 87.0562 42.452C87.0562 42.388 87.0762 42.316 87.1162 42.236C87.1562 42.156 87.2402 42.072 87.3682 41.984C87.4962 41.896 87.5922 41.824 87.6562 41.768C87.7282 41.712 87.7642 41.652 87.7642 41.588C87.7642 41.5 87.7162 41.436 87.6202 41.396C87.5242 41.356 87.4122 41.336 87.2842 41.336C87.0122 41.336 86.7282 41.404 86.4322 41.54L86.2522 40.94C86.4202 40.852 86.6002 40.784 86.7922 40.736C86.9922 40.688 87.1762 40.664 87.3442 40.664C87.7282 40.664 88.0202 40.752 88.2202 40.928C88.4202 41.096 88.5202 41.288 88.5202 41.504C88.5202 41.696 88.4682 41.844 88.3642 41.948C88.2682 42.052 88.1682 42.136 88.0642 42.2C87.9442 42.264 87.8522 42.324 87.7882 42.38C87.7242 42.428 87.6922 42.492 87.6922 42.572C87.6922 42.612 87.7002 42.656 87.7162 42.704L87.1882 42.836ZM91.9776 50V43.724H92.8776L92.9016 44.792C93.0936 44.456 93.3896 44.172 93.7896 43.94C94.1976 43.708 94.6256 43.592 95.0736 43.592C95.7696 43.592 96.2936 43.808 96.6456 44.24C97.0056 44.664 97.1856 45.312 97.1856 46.184V50H96.2616V46.244C96.2616 45.02 95.7696 44.42 94.7856 44.444C94.4176 44.444 94.0896 44.524 93.8016 44.684C93.5216 44.844 93.2976 45.056 93.1296 45.32C92.9696 45.584 92.8896 45.872 92.8896 46.184V50H91.9776ZM101.603 52.76C101.139 52.76 100.699 52.688 100.283 52.544C99.8753 52.4 99.5313 52.22 99.2513 52.004L99.6233 51.236C99.8633 51.428 100.155 51.588 100.499 51.716C100.851 51.844 101.227 51.908 101.627 51.908C102.307 51.908 102.839 51.716 103.223 51.332C103.607 50.956 103.799 50.396 103.799 49.652V48.824C103.607 49.184 103.299 49.492 102.875 49.748C102.459 49.996 102.003 50.12 101.507 50.12C100.923 50.12 100.399 49.98 99.9353 49.7C99.4793 49.42 99.1193 49.036 98.8553 48.548C98.5913 48.052 98.4593 47.488 98.4593 46.856C98.4593 46.232 98.5913 45.676 98.8553 45.188C99.1273 44.692 99.4913 44.304 99.9473 44.024C100.411 43.736 100.927 43.592 101.495 43.592C101.975 43.592 102.419 43.708 102.827 43.94C103.243 44.172 103.559 44.452 103.775 44.78L103.799 43.724H104.711V49.616C104.711 50.616 104.427 51.388 103.859 51.932C103.291 52.484 102.539 52.76 101.603 52.76ZM101.615 49.244C102.039 49.244 102.415 49.144 102.743 48.944C103.079 48.736 103.343 48.452 103.535 48.092C103.727 47.732 103.823 47.32 103.823 46.856C103.823 46.392 103.727 45.98 103.535 45.62C103.343 45.26 103.079 44.976 102.743 44.768C102.415 44.56 102.039 44.456 101.615 44.456C101.183 44.456 100.799 44.56 100.463 44.768C100.135 44.976 99.8753 45.26 99.6833 45.62C99.4993 45.98 99.4073 46.392 99.4073 46.856C99.4073 47.312 99.4993 47.724 99.6833 48.092C99.8753 48.452 100.135 48.736 100.463 48.944C100.799 49.144 101.183 49.244 101.615 49.244ZM109.813 50V43.724H110.725L110.737 44.804C110.945 44.444 111.241 44.156 111.625 43.94C112.009 43.716 112.425 43.604 112.873 43.604C113.321 43.604 113.701 43.708 114.013 43.916C114.333 44.124 114.573 44.48 114.733 44.984C114.853 44.736 115.029 44.508 115.261 44.3C115.493 44.092 115.757 43.924 116.053 43.796C116.357 43.668 116.677 43.604 117.013 43.604C117.677 43.604 118.181 43.82 118.525 44.252C118.877 44.676 119.053 45.332 119.053 46.22V50H118.129V46.268C118.129 45.652 118.013 45.2 117.781 44.912C117.549 44.616 117.201 44.468 116.737 44.468C116.377 44.468 116.057 44.548 115.777 44.708C115.497 44.868 115.277 45.08 115.117 45.344C114.965 45.608 114.889 45.896 114.889 46.208V50H113.965V46.256C113.965 45.064 113.501 44.468 112.573 44.468C112.221 44.468 111.905 44.548 111.625 44.708C111.345 44.86 111.125 45.068 110.965 45.332C110.813 45.596 110.737 45.884 110.737 46.196V50H109.813ZM123.207 50.12C122.663 50.12 122.171 49.98 121.731 49.7C121.291 49.412 120.943 49.024 120.687 48.536C120.431 48.04 120.303 47.48 120.303 46.856C120.303 46.224 120.435 45.664 120.699 45.176C120.963 44.68 121.319 44.292 121.767 44.012C122.215 43.732 122.715 43.592 123.267 43.592C123.771 43.592 124.219 43.708 124.611 43.94C125.011 44.172 125.315 44.472 125.523 44.84L125.547 43.724H126.459V50H125.535V48.884C125.311 49.236 124.991 49.532 124.575 49.772C124.159 50.004 123.703 50.12 123.207 50.12ZM123.411 49.244C123.827 49.244 124.199 49.144 124.527 48.944C124.855 48.736 125.111 48.452 125.295 48.092C125.487 47.732 125.583 47.316 125.583 46.844C125.583 46.388 125.487 45.98 125.295 45.62C125.111 45.26 124.855 44.98 124.527 44.78C124.199 44.572 123.827 44.468 123.411 44.468C122.987 44.468 122.611 44.572 122.283 44.78C121.963 44.98 121.711 45.26 121.527 45.62C121.343 45.98 121.251 46.388 121.251 46.844C121.251 47.308 121.343 47.724 121.527 48.092C121.711 48.452 121.963 48.736 122.283 48.944C122.611 49.144 122.987 49.244 123.411 49.244ZM123.615 52.232C123.399 52.232 123.231 52.172 123.111 52.052C122.991 51.94 122.931 51.78 122.931 51.572C122.931 51.372 122.991 51.212 123.111 51.092C123.231 50.972 123.399 50.912 123.615 50.912C123.831 50.912 123.999 50.968 124.119 51.08C124.247 51.2 124.311 51.364 124.311 51.572C124.311 51.772 124.247 51.932 124.119 52.052C123.999 52.172 123.831 52.232 123.615 52.232ZM128.2 50V43.724H129.1L129.124 44.792C129.316 44.456 129.612 44.172 130.012 43.94C130.42 43.708 130.848 43.592 131.296 43.592C131.992 43.592 132.516 43.808 132.868 44.24C133.228 44.664 133.408 45.312 133.408 46.184V50H132.484V46.244C132.484 45.02 131.992 44.42 131.008 44.444C130.64 44.444 130.312 44.524 130.024 44.684C129.744 44.844 129.52 45.056 129.352 45.32C129.192 45.584 129.112 45.872 129.112 46.184V50H128.2ZM137.826 52.76C137.362 52.76 136.922 52.688 136.506 52.544C136.098 52.4 135.754 52.22 135.474 52.004L135.846 51.236C136.086 51.428 136.378 51.588 136.722 51.716C137.074 51.844 137.45 51.908 137.85 51.908C138.53 51.908 139.062 51.716 139.446 51.332C139.83 50.956 140.022 50.396 140.022 49.652V48.824C139.83 49.184 139.522 49.492 139.098 49.748C138.682 49.996 138.226 50.12 137.73 50.12C137.146 50.12 136.622 49.98 136.158 49.7C135.702 49.42 135.342 49.036 135.078 48.548C134.814 48.052 134.682 47.488 134.682 46.856C134.682 46.232 134.814 45.676 135.078 45.188C135.35 44.692 135.714 44.304 136.17 44.024C136.634 43.736 137.15 43.592 137.718 43.592C138.198 43.592 138.642 43.708 139.05 43.94C139.466 44.172 139.782 44.452 139.998 44.78L140.022 43.724H140.934V49.616C140.934 50.616 140.65 51.388 140.082 51.932C139.514 52.484 138.762 52.76 137.826 52.76ZM137.838 49.244C138.262 49.244 138.638 49.144 138.966 48.944C139.302 48.736 139.566 48.452 139.758 48.092C139.95 47.732 140.046 47.32 140.046 46.856C140.046 46.392 139.95 45.98 139.758 45.62C139.566 45.26 139.302 44.976 138.966 44.768C138.638 44.56 138.262 44.456 137.838 44.456C137.406 44.456 137.022 44.56 136.686 44.768C136.358 44.976 136.098 45.26 135.906 45.62C135.722 45.98 135.63 46.392 135.63 46.856C135.63 47.312 135.722 47.724 135.906 48.092C136.098 48.452 136.358 48.736 136.686 48.944C137.022 49.144 137.406 49.244 137.838 49.244ZM145.376 50L147.836 46.832L145.424 43.724H146.576L148.46 46.16L150.188 43.724H151.292L148.976 46.82L151.448 50H150.308L148.364 47.504L146.48 50H145.376ZM154.601 50.12C154.057 50.12 153.565 49.98 153.125 49.7C152.685 49.412 152.337 49.024 152.081 48.536C151.825 48.04 151.697 47.48 151.697 46.856C151.697 46.224 151.829 45.664 152.093 45.176C152.357 44.68 152.713 44.292 153.161 44.012C153.609 43.732 154.109 43.592 154.661 43.592C155.165 43.592 155.613 43.708 156.005 43.94C156.405 44.172 156.709 44.472 156.917 44.84L156.941 43.724H157.853V50H156.929V48.884C156.705 49.236 156.385 49.532 155.969 49.772C155.553 50.004 155.097 50.12 154.601 50.12ZM154.805 49.244C155.221 49.244 155.593 49.144 155.921 48.944C156.249 48.736 156.505 48.452 156.689 48.092C156.881 47.732 156.977 47.316 156.977 46.844C156.977 46.388 156.881 45.98 156.689 45.62C156.505 45.26 156.249 44.98 155.921 44.78C155.593 44.572 155.221 44.468 154.805 44.468C154.381 44.468 154.005 44.572 153.677 44.78C153.357 44.98 153.105 45.26 152.921 45.62C152.737 45.98 152.645 46.388 152.645 46.844C152.645 47.308 152.737 47.724 152.921 48.092C153.105 48.452 153.357 48.736 153.677 48.944C154.005 49.144 154.381 49.244 154.805 49.244ZM155.705 42.632C155.537 42.632 155.389 42.596 155.261 42.524C155.141 42.452 155.001 42.344 154.841 42.2C154.721 42.096 154.625 42.02 154.553 41.972C154.481 41.924 154.405 41.9 154.325 41.9C154.029 41.9 153.853 42.132 153.797 42.596L153.137 42.512C153.161 42.152 153.285 41.844 153.509 41.588C153.733 41.332 154.025 41.204 154.385 41.204C154.545 41.204 154.681 41.236 154.793 41.3C154.913 41.364 155.053 41.468 155.213 41.612C155.325 41.716 155.417 41.796 155.489 41.852C155.569 41.908 155.653 41.936 155.741 41.936C155.861 41.936 155.961 41.88 156.041 41.768C156.129 41.648 156.185 41.492 156.209 41.3L156.869 41.384C156.845 41.728 156.729 42.024 156.521 42.272C156.313 42.512 156.041 42.632 155.705 42.632ZM162.958 50V41.12H163.87V44.84C164.078 44.472 164.382 44.172 164.782 43.94C165.182 43.708 165.594 43.592 166.018 43.592C166.738 43.592 167.274 43.808 167.626 44.24C167.986 44.664 168.166 45.312 168.166 46.184V50H167.242V46.244C167.242 45.028 166.746 44.428 165.754 44.444C165.394 44.444 165.07 44.524 164.782 44.684C164.502 44.844 164.278 45.056 164.11 45.32C163.95 45.584 163.87 45.872 163.87 46.184V50H162.958ZM172.656 50.12C172.04 50.12 171.488 49.98 171 49.7C170.52 49.412 170.14 49.024 169.86 48.536C169.58 48.04 169.44 47.476 169.44 46.844C169.44 46.22 169.58 45.664 169.86 45.176C170.14 44.68 170.52 44.292 171 44.012C171.488 43.732 172.04 43.592 172.656 43.592C173.272 43.592 173.82 43.732 174.3 44.012C174.788 44.292 175.168 44.68 175.44 45.176C175.72 45.664 175.86 46.22 175.86 46.844C175.86 47.476 175.72 48.04 175.44 48.536C175.168 49.024 174.788 49.412 174.3 49.7C173.82 49.98 173.272 50.12 172.656 50.12ZM172.656 49.256C173.096 49.256 173.484 49.152 173.82 48.944C174.164 48.736 174.432 48.452 174.624 48.092C174.816 47.724 174.912 47.308 174.912 46.844C174.912 46.38 174.816 45.972 174.624 45.62C174.432 45.26 174.164 44.976 173.82 44.768C173.484 44.56 173.096 44.456 172.656 44.456C172.216 44.456 171.824 44.56 171.48 44.768C171.136 44.976 170.868 45.26 170.676 45.62C170.484 45.98 170.388 46.388 170.388 46.844C170.388 47.308 170.484 47.724 170.676 48.092C170.868 48.452 171.136 48.736 171.48 48.944C171.824 49.152 172.216 49.256 172.656 49.256ZM172.656 52.232C172.44 52.232 172.272 52.172 172.152 52.052C172.032 51.94 171.972 51.78 171.972 51.572C171.972 51.372 172.032 51.212 172.152 51.092C172.272 50.972 172.44 50.912 172.656 50.912C172.872 50.912 173.04 50.968 173.16 51.08C173.288 51.2 173.352 51.364 173.352 51.572C173.352 51.772 173.288 51.932 173.16 52.052C173.04 52.172 172.872 52.232 172.656 52.232ZM171.264 42.728L170.868 42.38L172.212 41.096H173.1L174.444 42.38L174.048 42.728L172.656 41.828L171.264 42.728ZM177.749 42.38C177.525 42.38 177.353 42.324 177.233 42.212C177.113 42.092 177.053 41.928 177.053 41.72C177.053 41.52 177.113 41.36 177.233 41.24C177.353 41.12 177.525 41.06 177.749 41.06C177.965 41.06 178.133 41.12 178.253 41.24C178.373 41.352 178.433 41.512 178.433 41.72C178.433 41.92 178.373 42.08 178.253 42.2C178.133 42.32 177.965 42.38 177.749 42.38ZM177.293 50V43.724H178.217V50H177.293ZM184.271 50V44.6H182.867V43.724H184.271V42.092H185.183V43.724H186.755V44.6H185.183V50H184.271ZM187.872 50V41.12H188.784V44.84C188.992 44.472 189.296 44.172 189.696 43.94C190.096 43.708 190.508 43.592 190.932 43.592C191.652 43.592 192.188 43.808 192.54 44.24C192.9 44.664 193.08 45.312 193.08 46.184V50H192.156V46.244C192.156 45.028 191.66 44.428 190.668 44.444C190.308 44.444 189.984 44.524 189.696 44.684C189.416 44.844 189.192 45.056 189.024 45.32C188.864 45.584 188.784 45.872 188.784 46.184V50H187.872ZM197.57 50.12C196.954 50.12 196.402 49.98 195.914 49.7C195.434 49.412 195.054 49.024 194.774 48.536C194.494 48.04 194.354 47.476 194.354 46.844C194.354 46.22 194.494 45.664 194.774 45.176C195.054 44.68 195.434 44.292 195.914 44.012C196.402 43.732 196.954 43.592 197.57 43.592C197.73 43.592 197.878 43.604 198.014 43.628C198.158 43.652 198.29 43.676 198.41 43.7C198.562 43.732 198.706 43.748 198.842 43.748C199.522 43.748 199.862 43.304 199.862 42.416H200.642C200.642 42.872 200.55 43.26 200.366 43.58C200.182 43.9 199.906 44.12 199.538 44.24C199.922 44.528 200.222 44.896 200.438 45.344C200.662 45.792 200.774 46.292 200.774 46.844C200.774 47.476 200.634 48.04 200.354 48.536C200.082 49.024 199.702 49.412 199.214 49.7C198.734 49.98 198.186 50.12 197.57 50.12ZM197.57 49.256C198.01 49.256 198.398 49.152 198.734 48.944C199.078 48.736 199.346 48.452 199.538 48.092C199.73 47.724 199.826 47.308 199.826 46.844C199.826 46.38 199.73 45.972 199.538 45.62C199.346 45.26 199.078 44.976 198.734 44.768C198.398 44.56 198.01 44.456 197.57 44.456C197.13 44.456 196.738 44.56 196.394 44.768C196.05 44.976 195.782 45.26 195.59 45.62C195.398 45.98 195.302 46.388 195.302 46.844C195.302 47.308 195.398 47.724 195.59 48.092C195.782 48.452 196.05 48.736 196.394 48.944C196.738 49.152 197.13 49.256 197.57 49.256ZM198.158 42.8L196.19 41.624L196.778 40.868L198.482 42.308L198.158 42.8ZM202.663 42.38C202.439 42.38 202.267 42.324 202.147 42.212C202.027 42.092 201.967 41.928 201.967 41.72C201.967 41.52 202.027 41.36 202.147 41.24C202.267 41.12 202.439 41.06 202.663 41.06C202.879 41.06 203.047 41.12 203.167 41.24C203.287 41.352 203.347 41.512 203.347 41.72C203.347 41.92 203.287 42.08 203.167 42.2C203.047 42.32 202.879 42.38 202.663 42.38ZM202.207 50V43.724H203.131V50H202.207ZM209.185 50V44.6H207.781V43.724H209.185V42.092H210.097V43.724H211.669V44.6H210.097V50H209.185ZM212.786 50V43.724H213.698L213.71 44.936C213.878 44.56 214.134 44.244 214.478 43.988C214.822 43.724 215.214 43.592 215.654 43.592C215.79 43.592 215.918 43.604 216.038 43.628C216.158 43.652 216.258 43.676 216.338 43.7L216.086 44.72C215.878 44.632 215.67 44.588 215.462 44.588C215.102 44.588 214.79 44.676 214.526 44.852C214.262 45.02 214.058 45.244 213.914 45.524C213.778 45.804 213.71 46.112 213.71 46.448V50H212.786ZM219.453 50.12C218.909 50.12 218.417 49.98 217.977 49.7C217.537 49.412 217.189 49.024 216.933 48.536C216.677 48.04 216.549 47.48 216.549 46.856C216.549 46.224 216.681 45.664 216.945 45.176C217.209 44.68 217.565 44.292 218.013 44.012C218.461 43.732 218.961 43.592 219.513 43.592C220.017 43.592 220.465 43.708 220.857 43.94C221.257 44.172 221.561 44.472 221.769 44.84L221.793 43.724H222.705V50H221.781V48.884C221.557 49.236 221.237 49.532 220.821 49.772C220.405 50.004 219.949 50.12 219.453 50.12ZM219.657 49.244C220.073 49.244 220.445 49.144 220.773 48.944C221.101 48.736 221.357 48.452 221.541 48.092C221.733 47.732 221.829 47.316 221.829 46.844C221.829 46.388 221.733 45.98 221.541 45.62C221.357 45.26 221.101 44.98 220.773 44.78C220.445 44.572 220.073 44.468 219.657 44.468C219.233 44.468 218.857 44.572 218.529 44.78C218.209 44.98 217.957 45.26 217.773 45.62C217.589 45.98 217.497 46.388 217.497 46.844C217.497 47.308 217.589 47.724 217.773 48.092C217.957 48.452 218.209 48.736 218.529 48.944C218.857 49.144 219.233 49.244 219.657 49.244ZM224.446 50V43.724H225.346L225.37 44.792C225.562 44.456 225.858 44.172 226.258 43.94C226.666 43.708 227.094 43.592 227.542 43.592C228.238 43.592 228.762 43.808 229.114 44.24C229.474 44.664 229.654 45.312 229.654 46.184V50H228.73V46.244C228.73 45.02 228.238 44.42 227.254 44.444C226.886 44.444 226.558 44.524 226.27 44.684C225.99 44.844 225.766 45.056 225.598 45.32C225.438 45.584 225.358 45.872 225.358 46.184V50H224.446ZM234.072 52.76C233.608 52.76 233.168 52.688 232.752 52.544C232.344 52.4 232 52.22 231.72 52.004L232.092 51.236C232.332 51.428 232.624 51.588 232.968 51.716C233.32 51.844 233.696 51.908 234.096 51.908C234.776 51.908 235.308 51.716 235.692 51.332C236.076 50.956 236.268 50.396 236.268 49.652V48.824C236.076 49.184 235.768 49.492 235.344 49.748C234.928 49.996 234.472 50.12 233.976 50.12C233.392 50.12 232.868 49.98 232.404 49.7C231.948 49.42 231.588 49.036 231.324 48.548C231.06 48.052 230.928 47.488 230.928 46.856C230.928 46.232 231.06 45.676 231.324 45.188C231.596 44.692 231.96 44.304 232.416 44.024C232.88 43.736 233.396 43.592 233.964 43.592C234.444 43.592 234.888 43.708 235.296 43.94C235.712 44.172 236.028 44.452 236.244 44.78L236.268 43.724H237.18V49.616C237.18 50.616 236.896 51.388 236.328 51.932C235.76 52.484 235.008 52.76 234.072 52.76ZM234.084 49.244C234.508 49.244 234.884 49.144 235.212 48.944C235.548 48.736 235.812 48.452 236.004 48.092C236.196 47.732 236.292 47.32 236.292 46.856C236.292 46.392 236.196 45.98 236.004 45.62C235.812 45.26 235.548 44.976 235.212 44.768C234.884 44.56 234.508 44.456 234.084 44.456C233.652 44.456 233.268 44.56 232.932 44.768C232.604 44.976 232.344 45.26 232.152 45.62C231.968 45.98 231.876 46.392 231.876 46.856C231.876 47.312 231.968 47.724 232.152 48.092C232.344 48.452 232.604 48.736 232.932 48.944C233.268 49.144 233.652 49.244 234.084 49.244ZM61.4441 70V63.724H62.3561L62.3681 64.804C62.5761 64.444 62.8721 64.156 63.2561 63.94C63.6401 63.716 64.0561 63.604 64.5041 63.604C64.9521 63.604 65.3321 63.708 65.6441 63.916C65.9641 64.124 66.2041 64.48 66.3641 64.984C66.4841 64.736 66.6601 64.508 66.8921 64.3C67.1241 64.092 67.3881 63.924 67.6841 63.796C67.9881 63.668 68.3081 63.604 68.6441 63.604C69.3081 63.604 69.8121 63.82 70.1561 64.252C70.5081 64.676 70.6841 65.332 70.6841 66.22V70H69.7601V66.268C69.7601 65.652 69.6441 65.2 69.4121 64.912C69.1801 64.616 68.8321 64.468 68.3681 64.468C68.0081 64.468 67.6881 64.548 67.4081 64.708C67.1281 64.868 66.9081 65.08 66.7481 65.344C66.5961 65.608 66.5201 65.896 66.5201 66.208V70H65.5961V66.256C65.5961 65.064 65.1321 64.468 64.2041 64.468C63.8521 64.468 63.5361 64.548 63.2561 64.708C62.9761 64.86 62.7561 65.068 62.5961 65.332C62.4441 65.596 62.3681 65.884 62.3681 66.196V70H61.4441ZM75.1617 70.12C74.5457 70.12 73.9937 69.98 73.5057 69.7C73.0257 69.412 72.6457 69.024 72.3657 68.536C72.0857 68.04 71.9457 67.476 71.9457 66.844C71.9457 66.22 72.0857 65.664 72.3657 65.176C72.6457 64.68 73.0257 64.292 73.5057 64.012C73.9937 63.732 74.5457 63.592 75.1617 63.592C75.3217 63.592 75.4697 63.604 75.6057 63.628C75.7497 63.652 75.8817 63.676 76.0017 63.7C76.1537 63.732 76.2977 63.748 76.4337 63.748C77.1137 63.748 77.4537 63.304 77.4537 62.416H78.2337C78.2337 62.872 78.1417 63.26 77.9577 63.58C77.7737 63.9 77.4977 64.12 77.1297 64.24C77.5137 64.528 77.8137 64.896 78.0297 65.344C78.2537 65.792 78.3657 66.292 78.3657 66.844C78.3657 67.476 78.2257 68.04 77.9457 68.536C77.6737 69.024 77.2937 69.412 76.8057 69.7C76.3257 69.98 75.7777 70.12 75.1617 70.12ZM75.1617 69.256C75.6017 69.256 75.9897 69.152 76.3257 68.944C76.6697 68.736 76.9377 68.452 77.1297 68.092C77.3217 67.724 77.4177 67.308 77.4177 66.844C77.4177 66.38 77.3217 65.972 77.1297 65.62C76.9377 65.26 76.6697 64.976 76.3257 64.768C75.9897 64.56 75.6017 64.456 75.1617 64.456C74.7217 64.456 74.3297 64.56 73.9857 64.768C73.6417 64.976 73.3737 65.26 73.1817 65.62C72.9897 65.98 72.8937 66.388 72.8937 66.844C72.8937 67.308 72.9897 67.724 73.1817 68.092C73.3737 68.452 73.6417 68.736 73.9857 68.944C74.3297 69.152 74.7217 69.256 75.1617 69.256ZM74.4057 62.8L74.0817 62.308L75.7857 60.868L76.3737 61.624L74.4057 62.8ZM80.2547 62.38C80.0307 62.38 79.8587 62.324 79.7387 62.212C79.6187 62.092 79.5587 61.928 79.5587 61.72C79.5587 61.52 79.6187 61.36 79.7387 61.24C79.8587 61.12 80.0307 61.06 80.2547 61.06C80.4707 61.06 80.6387 61.12 80.7587 61.24C80.8787 61.352 80.9387 61.512 80.9387 61.72C80.9387 61.92 80.8787 62.08 80.7587 62.2C80.6387 62.32 80.4707 62.38 80.2547 62.38ZM79.7987 70V63.724H80.7227V70H79.7987ZM85.9131 70V63.724H86.8131L86.8371 64.792C87.0291 64.456 87.3251 64.172 87.7251 63.94C88.1331 63.708 88.5611 63.592 89.0091 63.592C89.7051 63.592 90.2291 63.808 90.5811 64.24C90.9411 64.664 91.1211 65.312 91.1211 66.184V70H90.1971V66.244C90.1971 65.02 89.7051 64.42 88.7211 64.444C88.3531 64.444 88.0251 64.524 87.7371 64.684C87.4571 64.844 87.2331 65.056 87.0651 65.32C86.9051 65.584 86.8251 65.872 86.8251 66.184V70H85.9131ZM92.8389 70V61.12H93.7509V64.84C93.9589 64.472 94.2629 64.172 94.6629 63.94C95.0629 63.708 95.4749 63.592 95.8989 63.592C96.6189 63.592 97.1549 63.808 97.5069 64.24C97.8669 64.664 98.0469 65.312 98.0469 66.184V70H97.1229V66.244C97.1229 65.028 96.6269 64.428 95.6349 64.444C95.2749 64.444 94.9509 64.524 94.6629 64.684C94.3829 64.844 94.1589 65.056 93.9909 65.32C93.8309 65.584 93.7509 65.872 93.7509 66.184V70H92.8389ZM102.213 70.12C101.669 70.12 101.177 69.98 100.737 69.7C100.297 69.412 99.9487 69.024 99.6927 68.536C99.4367 68.04 99.3087 67.48 99.3087 66.856C99.3087 66.224 99.4407 65.664 99.7047 65.176C99.9687 64.68 100.325 64.292 100.773 64.012C101.221 63.732 101.721 63.592 102.273 63.592C102.777 63.592 103.225 63.708 103.617 63.94C104.017 64.172 104.321 64.472 104.529 64.84L104.553 63.724H105.465V70H104.541V68.884C104.317 69.236 103.997 69.532 103.581 69.772C103.165 70.004 102.709 70.12 102.213 70.12ZM102.417 69.244C102.833 69.244 103.205 69.144 103.533 68.944C103.861 68.736 104.117 68.452 104.301 68.092C104.493 67.732 104.589 67.316 104.589 66.844C104.589 66.388 104.493 65.98 104.301 65.62C104.117 65.26 103.861 64.98 103.533 64.78C103.205 64.572 102.833 64.468 102.417 64.468C101.993 64.468 101.617 64.572 101.289 64.78C100.969 64.98 100.717 65.26 100.533 65.62C100.349 65.98 100.257 66.388 100.257 66.844C100.257 67.308 100.349 67.724 100.533 68.092C100.717 68.452 100.969 68.736 101.289 68.944C101.617 69.144 101.993 69.244 102.417 69.244ZM104.517 61.192L104.025 60.856L104.925 59.2L105.777 59.788L104.517 61.192ZM101.241 62.728L100.845 62.38L102.189 61.096H103.077L104.421 62.38L104.025 62.728L102.633 61.828L101.241 62.728ZM108.07 70V64.6H106.666V63.724H108.07V62.092H108.982V63.724H110.554V64.6H108.982V70H108.07ZM115.898 70V64.6H114.494V63.724H115.898V62.092H116.81V63.724H118.382V64.6H116.81V70H115.898ZM121.888 70.12C121.344 70.12 120.852 69.98 120.412 69.7C119.972 69.412 119.624 69.024 119.368 68.536C119.112 68.04 118.984 67.48 118.984 66.856C118.984 66.224 119.116 65.664 119.38 65.176C119.644 64.68 120 64.292 120.448 64.012C120.896 63.732 121.396 63.592 121.948 63.592C122.452 63.592 122.9 63.708 123.292 63.94C123.692 64.172 123.996 64.472 124.204 64.84L124.228 63.724H125.14V70H124.216V68.884C123.992 69.236 123.672 69.532 123.256 69.772C122.84 70.004 122.384 70.12 121.888 70.12ZM122.092 69.244C122.508 69.244 122.88 69.144 123.208 68.944C123.536 68.736 123.792 68.452 123.976 68.092C124.168 67.732 124.264 67.316 124.264 66.844C124.264 66.388 124.168 65.98 123.976 65.62C123.792 65.26 123.536 64.98 123.208 64.78C122.88 64.572 122.508 64.468 122.092 64.468C121.668 64.468 121.292 64.572 120.964 64.78C120.644 64.98 120.392 65.26 120.208 65.62C120.024 65.98 119.932 66.388 119.932 66.844C119.932 67.308 120.024 67.724 120.208 68.092C120.392 68.452 120.644 68.736 120.964 68.944C121.292 69.144 121.668 69.244 122.092 69.244ZM122.296 72.232C122.08 72.232 121.912 72.172 121.792 72.052C121.672 71.94 121.612 71.78 121.612 71.572C121.612 71.372 121.672 71.212 121.792 71.092C121.912 70.972 122.08 70.912 122.296 70.912C122.512 70.912 122.68 70.968 122.8 71.08C122.928 71.2 122.992 71.364 122.992 71.572C122.992 71.772 122.928 71.932 122.8 72.052C122.68 72.172 122.512 72.232 122.296 72.232ZM127.458 62.38C127.234 62.38 127.062 62.324 126.942 62.212C126.822 62.092 126.762 61.928 126.762 61.72C126.762 61.52 126.822 61.36 126.942 61.24C127.062 61.12 127.234 61.06 127.458 61.06C127.674 61.06 127.842 61.12 127.962 61.24C128.082 61.352 128.142 61.512 128.142 61.72C128.142 61.92 128.082 62.08 127.962 62.2C127.842 62.32 127.674 62.38 127.458 62.38ZM127.002 70V63.724H127.926V70H127.002ZM135.792 70L132.54 61.6H133.608L135.696 67.048C135.84 67.432 135.96 67.76 136.056 68.032C136.152 68.296 136.248 68.564 136.344 68.836C136.432 68.548 136.524 68.268 136.62 67.996C136.716 67.724 136.836 67.396 136.98 67.012L139.044 61.6H140.124L136.776 70H135.792ZM141.86 62.38C141.636 62.38 141.464 62.324 141.344 62.212C141.224 62.092 141.164 61.928 141.164 61.72C141.164 61.52 141.224 61.36 141.344 61.24C141.464 61.12 141.636 61.06 141.86 61.06C142.076 61.06 142.244 61.12 142.364 61.24C142.484 61.352 142.544 61.512 142.544 61.72C142.544 61.92 142.484 62.08 142.364 62.2C142.244 62.32 142.076 62.38 141.86 62.38ZM141.404 70V63.724H142.328V70H141.404ZM146.927 70.12C146.295 70.12 145.735 69.984 145.247 69.712C144.767 69.44 144.391 69.06 144.119 68.572C143.847 68.084 143.711 67.524 143.711 66.892C143.711 66.252 143.843 65.684 144.107 65.188C144.371 64.692 144.739 64.304 145.211 64.024C145.683 63.736 146.223 63.592 146.831 63.592C147.391 63.592 147.883 63.724 148.307 63.988C148.739 64.244 149.071 64.6 149.303 65.056C149.535 65.504 149.643 66.024 149.627 66.616L149.615 67.036H144.647C144.687 67.716 144.919 68.256 145.343 68.656C145.767 69.056 146.331 69.256 147.035 69.256C147.339 69.256 147.635 69.208 147.923 69.112C148.219 69.008 148.543 68.808 148.895 68.512L149.363 69.172C149.083 69.444 148.727 69.672 148.295 69.856C147.863 70.032 147.407 70.12 146.927 70.12ZM146.819 64.456C146.243 64.456 145.767 64.612 145.391 64.924C145.015 65.228 144.779 65.676 144.683 66.268H148.703V66.196C148.687 65.908 148.603 65.632 148.451 65.368C148.299 65.096 148.083 64.876 147.803 64.708C147.531 64.54 147.203 64.456 146.819 64.456ZM146.927 72.232C146.711 72.232 146.543 72.172 146.423 72.052C146.303 71.94 146.243 71.78 146.243 71.572C146.243 71.372 146.303 71.212 146.423 71.092C146.543 70.972 146.711 70.912 146.927 70.912C147.143 70.912 147.311 70.968 147.431 71.08C147.559 71.2 147.623 71.364 147.623 71.572C147.623 71.772 147.559 71.932 147.431 72.052C147.311 72.172 147.143 72.232 146.927 72.232ZM145.427 62.728L145.031 62.38L146.375 61.096H147.263L148.607 62.38L148.211 62.728L146.819 61.828L145.427 62.728ZM151.781 70V64.6H150.377V63.724H151.781V62.092H152.693V63.724H154.265V64.6H152.693V70H151.781ZM159.105 70V61.6H159.969L165.237 68.572C165.221 68.332 165.205 68.048 165.189 67.72C165.173 67.384 165.161 67.036 165.153 66.676C165.145 66.316 165.137 65.964 165.129 65.62C165.129 65.268 165.129 64.952 165.129 64.672V61.6H166.077V70H165.201L159.921 63.088C159.953 63.568 159.977 64.024 159.993 64.456C160.017 64.888 160.033 65.26 160.041 65.572C160.049 65.876 160.053 66.08 160.053 66.184V70H159.105ZM170.638 70.12C170.094 70.12 169.602 69.98 169.162 69.7C168.722 69.412 168.374 69.024 168.118 68.536C167.862 68.04 167.734 67.48 167.734 66.856C167.734 66.224 167.866 65.664 168.13 65.176C168.394 64.68 168.75 64.292 169.198 64.012C169.646 63.732 170.146 63.592 170.698 63.592C171.202 63.592 171.65 63.708 172.042 63.94C172.442 64.172 172.746 64.472 172.954 64.84L172.978 63.724H173.89V70H172.966V68.884C172.742 69.236 172.422 69.532 172.006 69.772C171.59 70.004 171.134 70.12 170.638 70.12ZM170.842 69.244C171.258 69.244 171.63 69.144 171.958 68.944C172.286 68.736 172.542 68.452 172.726 68.092C172.918 67.732 173.014 67.316 173.014 66.844C173.014 66.388 172.918 65.98 172.726 65.62C172.542 65.26 172.286 64.98 171.958 64.78C171.63 64.572 171.258 64.468 170.842 64.468C170.418 64.468 170.042 64.572 169.714 64.78C169.394 64.98 169.142 65.26 168.958 65.62C168.774 65.98 168.682 66.388 168.682 66.844C168.682 67.308 168.774 67.724 168.958 68.092C169.142 68.452 169.394 68.736 169.714 68.944C170.042 69.144 170.418 69.244 170.842 69.244ZM175.62 70V63.724H176.532L176.544 64.804C176.752 64.444 177.048 64.156 177.432 63.94C177.816 63.716 178.232 63.604 178.68 63.604C179.128 63.604 179.508 63.708 179.82 63.916C180.14 64.124 180.38 64.48 180.54 64.984C180.66 64.736 180.836 64.508 181.068 64.3C181.3 64.092 181.564 63.924 181.86 63.796C182.164 63.668 182.484 63.604 182.82 63.604C183.484 63.604 183.988 63.82 184.332 64.252C184.684 64.676 184.86 65.332 184.86 66.22V70H183.936V66.268C183.936 65.652 183.82 65.2 183.588 64.912C183.356 64.616 183.008 64.468 182.544 64.468C182.184 64.468 181.864 64.548 181.584 64.708C181.304 64.868 181.084 65.08 180.924 65.344C180.772 65.608 180.696 65.896 180.696 66.208V70H179.772V66.256C179.772 65.064 179.308 64.468 178.38 64.468C178.028 64.468 177.712 64.548 177.432 64.708C177.152 64.86 176.932 65.068 176.772 65.332C176.62 65.596 176.544 65.884 176.544 66.196V70H175.62ZM187.057 70.12C186.609 70.12 186.385 69.872 186.385 69.376C186.385 69.16 186.445 68.98 186.565 68.836C186.693 68.692 186.857 68.62 187.057 68.62C187.513 68.62 187.741 68.872 187.741 69.376C187.741 69.592 187.677 69.772 187.549 69.916C187.429 70.052 187.265 70.12 187.057 70.12Z" fill="#191919"/>
<path d="M60.128 18.18C58.904 18.18 57.812 17.904 56.852 17.352C55.904 16.8 55.16 16.038 54.62 15.066C54.08 14.082 53.81 12.948 53.81 11.664C53.81 10.752 53.972 9.906 54.296 9.126C54.632 8.334 55.088 7.644 55.664 7.056C56.252 6.468 56.936 6.012 57.716 5.688C58.508 5.364 59.36 5.202 60.272 5.202C61.172 5.202 62.036 5.394 62.864 5.778C63.704 6.15 64.376 6.654 64.88 7.29L63.242 9.108C62.81 8.652 62.348 8.298 61.856 8.046C61.364 7.794 60.83 7.668 60.254 7.668C59.546 7.668 58.904 7.836 58.328 8.172C57.764 8.508 57.314 8.982 56.978 9.594C56.642 10.194 56.474 10.89 56.474 11.682C56.474 12.498 56.636 13.212 56.96 13.824C57.296 14.424 57.764 14.892 58.364 15.228C58.976 15.552 59.678 15.714 60.47 15.714C61.058 15.714 61.61 15.594 62.126 15.354C62.642 15.114 63.086 14.802 63.458 14.418L64.718 16.452C64.43 16.776 64.04 17.07 63.548 17.334C63.056 17.598 62.51 17.808 61.91 17.964C61.322 18.108 60.728 18.18 60.128 18.18ZM66.6706 18V4.68H69.1006V9.738C69.4246 9.318 69.8506 8.976 70.3786 8.712C70.9186 8.436 71.4826 8.298 72.0706 8.298C74.2546 8.298 75.3466 9.594 75.3466 12.186V18H72.8986V12.366C72.8986 11.01 72.3286 10.356 71.1886 10.404C70.6006 10.404 70.1086 10.584 69.7126 10.944C69.3286 11.304 69.1366 11.748 69.1366 12.276V18H66.6706ZM81.3795 18.18C80.5875 18.18 79.8735 17.964 79.2375 17.532C78.6015 17.1 78.0915 16.512 77.7075 15.768C77.3355 15.024 77.1495 14.178 77.1495 13.23C77.1495 12.258 77.3355 11.406 77.7075 10.674C78.0915 9.93 78.6075 9.348 79.2555 8.928C79.9155 8.508 80.6595 8.298 81.4875 8.298C82.1595 8.298 82.7475 8.436 83.2515 8.712C83.7555 8.976 84.1575 9.324 84.4575 9.756V8.496H86.9055V18H84.4395V16.722C84.1035 17.142 83.6655 17.49 83.1255 17.766C82.5975 18.042 82.0155 18.18 81.3795 18.18ZM82.0455 16.038C82.7775 16.038 83.3715 15.78 83.8275 15.264C84.2835 14.748 84.5115 14.07 84.5115 13.23C84.5115 12.39 84.2835 11.712 83.8275 11.196C83.3715 10.68 82.7775 10.422 82.0455 10.422C81.3255 10.422 80.7375 10.68 80.2815 11.196C79.8375 11.712 79.6155 12.39 79.6155 13.23C79.6155 14.07 79.8375 14.748 80.2815 15.264C80.7375 15.78 81.3255 16.038 82.0455 16.038ZM83.3595 7.272L79.9035 5.418L81.1635 3.708L84.1155 6.12L83.3595 7.272ZM93.8794 18.18C92.9074 18.18 92.0434 17.97 91.2874 17.55C90.5314 17.118 89.9374 16.53 89.5054 15.786C89.0734 15.042 88.8574 14.19 88.8574 13.23C88.8574 12.282 89.0734 11.436 89.5054 10.692C89.9374 9.948 90.5314 9.366 91.2874 8.946C92.0434 8.514 92.9074 8.298 93.8794 8.298C94.8274 8.298 95.6794 8.514 96.4354 8.946C97.1914 9.366 97.7854 9.948 98.2174 10.692C98.6494 11.436 98.8654 12.282 98.8654 13.23C98.8654 14.19 98.6494 15.042 98.2174 15.786C97.7854 16.53 97.1914 17.118 96.4354 17.55C95.6794 17.97 94.8274 18.18 93.8794 18.18ZM93.8794 16.038C94.3594 16.038 94.7914 15.918 95.1754 15.678C95.5594 15.426 95.8534 15.09 96.0574 14.67C96.2734 14.25 96.3814 13.77 96.3814 13.23C96.3814 12.69 96.2734 12.21 96.0574 11.79C95.8534 11.37 95.5594 11.04 95.1754 10.8C94.7914 10.56 94.3594 10.44 93.8794 10.44C93.3874 10.44 92.9494 10.56 92.5654 10.8C92.1814 11.04 91.8814 11.37 91.6654 11.79C91.4494 12.21 91.3414 12.69 91.3414 13.23C91.3414 13.77 91.4494 14.25 91.6654 14.67C91.8814 15.09 92.1814 15.426 92.5654 15.678C92.9494 15.918 93.3874 16.038 93.8794 16.038ZM106.239 18V8.496H108.615L108.651 9.846C108.987 9.39 109.407 9.024 109.911 8.748C110.415 8.46 110.943 8.316 111.495 8.316C112.179 8.316 112.749 8.466 113.205 8.766C113.661 9.054 114.033 9.516 114.321 10.152C114.669 9.588 115.137 9.144 115.725 8.82C116.325 8.484 116.943 8.316 117.579 8.316C119.751 8.316 120.837 9.624 120.837 12.24V18H118.371V12.42C118.371 11.1 117.831 10.44 116.751 10.44C116.175 10.44 115.695 10.62 115.311 10.98C114.939 11.34 114.753 11.79 114.753 12.33V18H112.287V12.384C112.287 11.76 112.149 11.28 111.873 10.944C111.597 10.608 111.201 10.44 110.685 10.44C110.121 10.44 109.647 10.62 109.263 10.98C108.891 11.34 108.705 11.778 108.705 12.294V18H106.239ZM126.566 18.18C125.522 18.18 124.7 17.844 124.1 17.172C123.512 16.488 123.218 15.552 123.218 14.364V8.496H125.666V13.914C125.666 14.598 125.828 15.138 126.152 15.534C126.488 15.918 126.944 16.11 127.52 16.11C128.096 16.11 128.57 15.93 128.942 15.57C129.326 15.21 129.518 14.748 129.518 14.184V8.496C130.334 8.496 130.898 8.334 131.21 8.01C131.534 7.674 131.696 7.152 131.696 6.444H133.586C133.586 7.116 133.454 7.728 133.19 8.28C132.938 8.832 132.53 9.234 131.966 9.486V18H129.626L129.572 16.65C129.26 17.106 128.834 17.478 128.294 17.766C127.766 18.042 127.19 18.18 126.566 18.18ZM128.636 7.272L125.18 5.418L126.44 3.708L129.392 6.12L128.636 7.272ZM134.54 18V8.496H136.916L136.952 9.774C137.276 9.342 137.708 8.988 138.248 8.712C138.788 8.436 139.352 8.298 139.94 8.298C142.124 8.298 143.216 9.594 143.216 12.186V18H140.768V12.366C140.768 11.01 140.198 10.356 139.058 10.404C138.47 10.404 137.978 10.584 137.582 10.944C137.198 11.304 137.006 11.748 137.006 12.276V18H134.54ZM149.987 22.14C149.255 22.14 148.523 22.026 147.791 21.798C147.071 21.582 146.483 21.3 146.027 20.952L146.891 19.17C147.263 19.446 147.701 19.662 148.205 19.818C148.721 19.974 149.243 20.052 149.771 20.052C151.631 20.052 152.561 19.176 152.561 17.424V16.686C152.261 17.07 151.841 17.394 151.301 17.658C150.773 17.91 150.215 18.036 149.627 18.036C148.751 18.036 147.965 17.832 147.269 17.424C146.585 17.004 146.045 16.434 145.649 15.714C145.253 14.982 145.055 14.148 145.055 13.212C145.055 12.264 145.247 11.418 145.631 10.674C146.027 9.93 146.567 9.348 147.251 8.928C147.935 8.508 148.703 8.298 149.555 8.298C150.191 8.298 150.779 8.43 151.319 8.694C151.871 8.946 152.309 9.252 152.633 9.612L152.669 8.496H155.027V17.298C155.027 18.846 154.577 20.04 153.677 20.88C152.789 21.72 151.559 22.14 149.987 22.14ZM150.059 16.02C150.839 16.02 151.463 15.762 151.931 15.246C152.411 14.73 152.651 14.058 152.651 13.23C152.651 12.39 152.411 11.712 151.931 11.196C151.451 10.668 150.827 10.404 150.059 10.404C149.303 10.404 148.685 10.668 148.205 11.196C147.737 11.724 147.503 12.402 147.503 13.23C147.503 14.058 147.737 14.73 148.205 15.246C148.685 15.762 149.303 16.02 150.059 16.02ZM168.434 18.18C167.834 18.18 167.258 18.06 166.706 17.82C166.166 17.568 165.734 17.256 165.41 16.884L165.356 17.964H163.016V4.68H165.482V9.612C165.794 9.24 166.208 8.928 166.724 8.676C167.252 8.424 167.804 8.298 168.38 8.298C169.208 8.298 169.946 8.508 170.594 8.928C171.254 9.348 171.77 9.93 172.142 10.674C172.526 11.418 172.718 12.27 172.718 13.23C172.718 14.19 172.532 15.042 172.16 15.786C171.788 16.53 171.278 17.118 170.63 17.55C169.994 17.97 169.262 18.18 168.434 18.18ZM167.876 16.074C168.596 16.074 169.184 15.81 169.64 15.282C170.096 14.754 170.324 14.07 170.324 13.23C170.324 12.402 170.096 11.73 169.64 11.214C169.196 10.686 168.608 10.422 167.876 10.422C167.132 10.422 166.532 10.686 166.076 11.214C165.62 11.73 165.392 12.402 165.392 13.23C165.392 14.07 165.62 14.754 166.076 15.282C166.532 15.81 167.132 16.074 167.876 16.074ZM178.235 18.18C177.443 18.18 176.729 17.964 176.093 17.532C175.457 17.1 174.947 16.512 174.563 15.768C174.191 15.024 174.005 14.178 174.005 13.23C174.005 12.258 174.191 11.406 174.563 10.674C174.947 9.93 175.463 9.348 176.111 8.928C176.771 8.508 177.515 8.298 178.343 8.298C179.015 8.298 179.603 8.436 180.107 8.712C180.611 8.976 181.013 9.324 181.313 9.756V8.496H183.761V18H181.295V16.722C180.959 17.142 180.521 17.49 179.981 17.766C179.453 18.042 178.871 18.18 178.235 18.18ZM178.901 16.038C179.633 16.038 180.227 15.78 180.683 15.264C181.139 14.748 181.367 14.07 181.367 13.23C181.367 12.39 181.139 11.712 180.683 11.196C180.227 10.68 179.633 10.422 178.901 10.422C178.181 10.422 177.593 10.68 177.137 11.196C176.693 11.712 176.471 12.39 176.471 13.23C176.471 14.07 176.693 14.748 177.137 15.264C177.593 15.78 178.181 16.038 178.901 16.038ZM179.225 21.888C178.733 21.888 178.349 21.768 178.073 21.528C177.809 21.288 177.677 20.952 177.677 20.52C177.677 20.1 177.815 19.764 178.091 19.512C178.367 19.26 178.745 19.134 179.225 19.134C179.717 19.134 180.095 19.254 180.359 19.494C180.635 19.734 180.773 20.076 180.773 20.52C180.773 20.928 180.635 21.258 180.359 21.51C180.083 21.762 179.705 21.888 179.225 21.888ZM186.325 18V8.496H188.701L188.737 9.774C189.061 9.342 189.493 8.988 190.033 8.712C190.573 8.436 191.137 8.298 191.725 8.298C193.909 8.298 195.001 9.594 195.001 12.186V18H192.553V12.366C192.553 11.01 191.983 10.356 190.843 10.404C190.255 10.404 189.763 10.584 189.367 10.944C188.983 11.304 188.791 11.748 188.791 12.276V18H186.325Z" fill="url(#paint0_linear_2445_52057)"/>
<path d="M67.959 179V168.336H71.4453C72.6025 168.336 73.4717 168.575 74.0527 169.054C74.6387 169.532 74.9316 170.24 74.9316 171.178C74.9316 171.676 74.79 172.118 74.5068 172.503C74.2236 172.884 73.8379 173.18 73.3496 173.39C73.9258 173.551 74.3799 173.858 74.7119 174.312C75.0488 174.762 75.2173 175.299 75.2173 175.924C75.2173 176.881 74.9072 177.633 74.2871 178.18C73.667 178.727 72.7905 179 71.6577 179H67.959ZM69.3652 174.012V177.85H71.687C72.3413 177.85 72.8564 177.682 73.2324 177.345C73.6133 177.003 73.8037 176.534 73.8037 175.938C73.8037 174.654 73.1055 174.012 71.709 174.012H69.3652ZM69.3652 172.884H71.4893C72.1045 172.884 72.5952 172.73 72.9614 172.423C73.3325 172.115 73.5181 171.698 73.5181 171.17C73.5181 170.584 73.3472 170.16 73.0054 169.896C72.6636 169.627 72.1436 169.493 71.4453 169.493H69.3652V172.884ZM80.3809 179.146C79.3066 179.146 78.4326 178.795 77.7588 178.092C77.085 177.384 76.748 176.439 76.748 175.257V175.008C76.748 174.222 76.897 173.521 77.1948 172.906C77.4976 172.286 77.9175 171.803 78.4546 171.456C78.9966 171.104 79.5825 170.929 80.2124 170.929C81.2427 170.929 82.0435 171.268 82.6147 171.947C83.186 172.625 83.4717 173.597 83.4717 174.862V175.426H78.103C78.1226 176.207 78.3496 176.839 78.7842 177.323C79.2236 177.801 79.7803 178.041 80.4541 178.041C80.9326 178.041 81.3379 177.943 81.6699 177.748C82.002 177.552 82.2925 177.293 82.5415 176.971L83.3691 177.616C82.7051 178.636 81.709 179.146 80.3809 179.146ZM80.2124 172.042C79.6655 172.042 79.2065 172.242 78.8354 172.643C78.4644 173.038 78.2349 173.595 78.147 174.312H82.1167V174.21C82.0776 173.521 81.8921 172.989 81.5601 172.613C81.228 172.232 80.7788 172.042 80.2124 172.042ZM91.3599 177.015L93.2056 171.075H94.6558L91.4697 180.223C90.9766 181.542 90.1929 182.201 89.1187 182.201L88.8623 182.179L88.3569 182.083V180.985L88.7231 181.014C89.1821 181.014 89.5386 180.921 89.7925 180.736C90.0513 180.55 90.2637 180.211 90.4297 179.718L90.73 178.912L87.9028 171.075H89.3823L91.3599 177.015ZM95.3955 174.964C95.3955 174.188 95.5469 173.49 95.8496 172.87C96.1572 172.25 96.582 171.771 97.124 171.434C97.6709 171.097 98.2935 170.929 98.9917 170.929C100.071 170.929 100.942 171.302 101.606 172.049C102.275 172.796 102.61 173.79 102.61 175.03V175.125C102.61 175.897 102.461 176.59 102.163 177.206C101.87 177.816 101.448 178.292 100.896 178.634C100.349 178.976 99.7192 179.146 99.0063 179.146C97.9321 179.146 97.0605 178.773 96.3916 178.026C95.7275 177.279 95.3955 176.29 95.3955 175.06V174.964ZM96.7578 175.125C96.7578 176.004 96.9604 176.71 97.3657 177.242C97.7759 177.774 98.3228 178.041 99.0063 178.041C99.6948 178.041 100.242 177.772 100.647 177.235C101.052 176.693 101.255 175.936 101.255 174.964C101.255 174.095 101.047 173.392 100.632 172.855C100.222 172.313 99.6753 172.042 98.9917 172.042C98.3228 172.042 97.7832 172.308 97.373 172.84C96.9629 173.373 96.7578 174.134 96.7578 175.125ZM109.202 178.216C108.674 178.836 107.9 179.146 106.88 179.146C106.035 179.146 105.391 178.902 104.946 178.414C104.507 177.921 104.285 177.193 104.28 176.231V171.075H105.635V176.195C105.635 177.396 106.123 177.997 107.1 177.997C108.135 177.997 108.823 177.611 109.165 176.839V171.075H110.52V179H109.231L109.202 178.216ZM112.542 181.124L111.772 180.597C112.231 179.957 112.471 179.298 112.49 178.619V177.396H113.816V178.458C113.816 178.951 113.694 179.444 113.45 179.938C113.21 180.431 112.908 180.826 112.542 181.124ZM125.959 175.125C125.959 176.336 125.681 177.311 125.125 178.048C124.568 178.78 123.821 179.146 122.883 179.146C121.882 179.146 121.108 178.792 120.562 178.084L120.496 179H119.25V167.75H120.605V171.947C121.152 171.268 121.907 170.929 122.869 170.929C123.831 170.929 124.585 171.292 125.132 172.02C125.684 172.748 125.959 173.744 125.959 175.008V175.125ZM124.604 174.972C124.604 174.049 124.426 173.336 124.07 172.833C123.713 172.33 123.201 172.079 122.532 172.079C121.638 172.079 120.996 172.494 120.605 173.324V176.751C121.021 177.582 121.667 177.997 122.546 177.997C123.196 177.997 123.701 177.745 124.062 177.242C124.424 176.739 124.604 175.982 124.604 174.972ZM130.962 179.146C129.888 179.146 129.014 178.795 128.34 178.092C127.666 177.384 127.329 176.439 127.329 175.257V175.008C127.329 174.222 127.478 173.521 127.776 172.906C128.079 172.286 128.499 171.803 129.036 171.456C129.578 171.104 130.164 170.929 130.793 170.929C131.824 170.929 132.625 171.268 133.196 171.947C133.767 172.625 134.053 173.597 134.053 174.862V175.426H128.684C128.704 176.207 128.931 176.839 129.365 177.323C129.805 177.801 130.361 178.041 131.035 178.041C131.514 178.041 131.919 177.943 132.251 177.748C132.583 177.552 132.874 177.293 133.123 176.971L133.95 177.616C133.286 178.636 132.29 179.146 130.962 179.146ZM130.793 172.042C130.247 172.042 129.788 172.242 129.417 172.643C129.045 173.038 128.816 173.595 128.728 174.312H132.698V174.21C132.659 173.521 132.473 172.989 132.141 172.613C131.809 172.232 131.36 172.042 130.793 172.042ZM144.241 178.216C143.713 178.836 142.939 179.146 141.919 179.146C141.074 179.146 140.43 178.902 139.985 178.414C139.546 177.921 139.324 177.193 139.319 176.231V171.075H140.674V176.195C140.674 177.396 141.162 177.997 142.139 177.997C143.174 177.997 143.862 177.611 144.204 176.839V171.075H145.559V179H144.27L144.241 178.216ZM148.906 171.075L148.95 172.071C149.556 171.31 150.347 170.929 151.323 170.929C152.998 170.929 153.843 171.874 153.857 173.763V179H152.502V173.756C152.498 173.185 152.366 172.762 152.107 172.489C151.853 172.215 151.455 172.079 150.913 172.079C150.474 172.079 150.088 172.196 149.756 172.43C149.424 172.665 149.165 172.972 148.979 173.353V179H147.625V171.075H148.906ZM157.373 179H156.018V171.075H157.373V179ZM155.908 168.973C155.908 168.753 155.974 168.568 156.106 168.417C156.243 168.265 156.443 168.189 156.707 168.189C156.97 168.189 157.17 168.265 157.307 168.417C157.444 168.568 157.512 168.753 157.512 168.973C157.512 169.193 157.444 169.376 157.307 169.522C157.17 169.669 156.97 169.742 156.707 169.742C156.443 169.742 156.243 169.669 156.106 169.522C155.974 169.376 155.908 169.193 155.908 168.973ZM159.219 174.972C159.219 173.727 159.504 172.743 160.076 172.02C160.647 171.292 161.414 170.929 162.375 170.929C163.313 170.929 164.053 171.244 164.595 171.874L164.653 171.075H165.898V182.047H164.543V178.268C163.997 178.854 163.269 179.146 162.361 179.146C161.404 179.146 160.64 178.775 160.068 178.033C159.502 177.286 159.219 176.297 159.219 175.067V174.972ZM160.574 175.125C160.574 176.034 160.764 176.747 161.145 177.264C161.531 177.782 162.048 178.041 162.698 178.041C163.503 178.041 164.119 177.684 164.543 176.971V173.089C164.114 172.391 163.503 172.042 162.712 172.042C162.058 172.042 161.538 172.303 161.152 172.826C160.767 173.343 160.574 174.11 160.574 175.125ZM172.966 178.216C172.439 178.836 171.665 179.146 170.645 179.146C169.8 179.146 169.155 178.902 168.711 178.414C168.271 177.921 168.049 177.193 168.044 176.231V171.075H169.399V176.195C169.399 177.396 169.888 177.997 170.864 177.997C171.899 177.997 172.588 177.611 172.93 176.839V171.075H174.285V179H172.996L172.966 178.216ZM179.639 179.146C178.564 179.146 177.69 178.795 177.017 178.092C176.343 177.384 176.006 176.439 176.006 175.257V175.008C176.006 174.222 176.155 173.521 176.453 172.906C176.755 172.286 177.175 171.803 177.712 171.456C178.254 171.104 178.84 170.929 179.47 170.929C180.5 170.929 181.301 171.268 181.873 171.947C182.444 172.625 182.729 173.597 182.729 174.862V175.426H177.361C177.38 176.207 177.607 176.839 178.042 177.323C178.481 177.801 179.038 178.041 179.712 178.041C180.19 178.041 180.596 177.943 180.928 177.748C181.26 177.552 181.55 177.293 181.799 176.971L182.627 177.616C181.963 178.636 180.967 179.146 179.639 179.146ZM179.47 172.042C178.923 172.042 178.464 172.242 178.093 172.643C177.722 173.038 177.493 173.595 177.405 174.312H181.375V174.21C181.335 173.521 181.15 172.989 180.818 172.613C180.486 172.232 180.037 172.042 179.47 172.042Z" fill="#9A9A9A"/>
<path d="M169.792 151.169C173.93 151.169 177.352 149.807 180.058 147.082C182.764 144.357 184.117 140.838 184.117 136.523V120.077C184.117 118.382 182.743 117.007 181.048 117.007C179.352 117.007 177.978 118.381 177.978 120.077V136.523C177.978 139.044 177.171 141.138 175.556 142.807C173.941 144.476 172.02 145.311 169.792 145.311C167.563 145.311 165.642 144.476 164.027 142.807C162.413 141.138 161.605 139.044 161.605 136.523V120.077C161.605 118.382 160.231 117.007 158.535 117.007C156.84 117.007 155.466 118.381 155.466 120.077V136.523C155.466 140.838 156.819 144.357 159.525 147.082C162.231 149.807 165.653 151.169 169.792 151.169Z" fill="#191919"/>
<path fill-rule="evenodd" clip-rule="evenodd" d="M64.0141 108.728C64.0141 107.221 65.2353 106 66.7416 106C68.248 106 69.4692 107.221 69.4692 108.728V133.906C69.9581 140.226 75.2582 145.222 81.7161 145.222C88.4959 145.222 94.0117 139.719 94.0117 132.954C94.0117 126.189 88.4959 120.686 81.7161 120.686C81.1892 120.686 80.6612 120.718 80.1485 120.784C78.6676 120.974 77.3071 119.922 77.1185 118.441C76.9298 116.961 77.9814 115.606 79.4666 115.418C80.2048 115.325 80.9615 115.277 81.7161 115.277C91.4847 115.277 99.4321 123.207 99.4321 132.954C99.4321 142.701 91.4847 150.631 81.7161 150.631C75.1303 150.631 69.3835 147.019 66.3308 141.683C64.8987 139.18 64.0618 136.302 64.0141 133.23C64.013 133.137 64 133.047 64 132.954C64 132.907 64.0119 132.862 64.0141 132.815V108.728Z" fill="#191919"/>
<path fill-rule="evenodd" clip-rule="evenodd" d="M150.661 108.728C150.661 107.221 149.44 106 147.933 106C146.427 106 145.206 107.221 145.206 108.728V133.906C144.717 140.226 139.417 145.222 132.959 145.222C126.179 145.222 120.663 139.719 120.663 132.954C120.663 126.189 126.179 120.686 132.959 120.686C133.486 120.686 134.014 120.718 134.526 120.784C136.007 120.974 137.368 119.922 137.556 118.441C137.745 116.961 136.694 115.606 135.208 115.418C134.47 115.325 133.713 115.277 132.959 115.277C123.19 115.277 115.243 123.207 115.243 132.954C115.243 142.701 123.19 150.631 132.959 150.631C139.545 150.631 145.291 147.019 148.344 141.683C149.776 139.18 150.613 136.302 150.661 133.23C150.662 133.137 150.675 133.047 150.675 132.954C150.675 132.907 150.663 132.862 150.661 132.815V108.728Z" fill="#191919"/>
<path fill-rule="evenodd" clip-rule="evenodd" d="M110.412 112.123C109.763 112.816 108.899 113.163 107.821 113.163C106.742 113.163 105.873 112.822 105.213 112.14C104.553 111.435 104.223 110.588 104.223 109.598C104.223 108.608 104.553 107.76 105.213 107.056C105.873 106.352 106.742 106 107.821 106C108.899 106 109.763 106.352 110.412 107.056C111.061 107.76 111.386 108.608 111.386 109.598C111.386 110.588 111.061 111.43 110.412 112.123ZM110.835 147.6C110.835 149.274 109.478 150.631 107.804 150.631C106.131 150.631 104.774 149.274 104.774 147.6V120.05C104.774 118.377 106.131 117.02 107.804 117.02C109.478 117.02 110.835 118.377 110.835 120.05V147.6Z" fill="#191919"/>
<defs>
<linearGradient id="paint0_linear_2445_52057" x1="36.4595" y1="11.2653" x2="207.703" y2="11.2653" gradientUnits="userSpaceOnUse">
<stop stop-color="#FB8E8C"/>
<stop offset="1" stop-color="#E812A4"/>
</linearGradient>
</defs>
</svg>
