<svg width="16" height="14" viewBox="0 0 16 14" fill="none" xmlns="http://www.w3.org/2000/svg">
<path fill-rule="evenodd" clip-rule="evenodd" d="M15.752 1.589C15.1644 1.8618 14.5379 2.04161 13.895 2.122C14.5784 1.68809 15.0831 1.02299 15.317 0.248C14.6867 0.641301 13.9916 0.919617 13.264 1.07C12.6669 0.392885 11.8088 0.00347026 10.906 0C9.07844 0.0442147 7.63208 1.56039 7.674 3.388C7.67335 3.64732 7.70152 3.90591 7.758 4.159C5.128 4.00636 2.69531 2.71443 1.096 0.621C0.80805 1.14125 0.657637 1.72638 0.659 2.321C0.650316 3.43886 1.18693 4.49081 2.097 5.14C1.58128 5.12211 1.07813 4.97604 0.633 4.715V4.758C0.606429 6.33771 1.68624 7.72164 3.225 8.08C2.74997 8.21581 2.2493 8.2357 1.765 8.138C2.15631 9.49272 3.37472 10.4419 4.784 10.49C3.65572 11.4254 2.23661 11.9382 0.771 11.94C0.513247 11.9402 0.255737 11.9242 0 11.892C1.46214 12.883 3.18768 13.4131 4.954 13.414C10.898 13.414 14.148 8.253 14.148 3.778C14.148 3.63 14.148 3.485 14.139 3.34C14.7759 2.85621 15.322 2.26338 15.752 1.589Z" fill="white"/>
</svg>
